<?xml version="1.0" encoding="utf-8"?>
<!-- Generator: Adobe Illustrator 27.5.0, SVG Export Plug-In . SVG Version: 6.00 Build 0)  -->
<svg version="1.1" xmlns="http://www.w3.org/2000/svg" xmlns:xlink="http://www.w3.org/1999/xlink" x="0px" y="0px"
	 viewBox="0 0 750 500" style="enable-background:new 0 0 750 500;" xml:space="preserve">
<g id="Background_Simple">
	<g>
		<path style="fill:#92E3A9;" d="M704.467,309.174c-2.582-107.896-84.564-191.872-166.564-236.965
			c-44.988-24.74-96.878-42.34-147.563-34.683c-26.616,4.021-50.235,18.7-73.419,32.766c-24.765,15.025-50.185,25.665-76.547,36.386
			c-37.542,15.267-75.433,29.91-111.542,49.064c-28.879,15.319-58.174,33.594-78.668,61.482
			C14.787,265.363,12.61,344.662,38.948,398.281c14.504,29.528,40.51,48.154,68.235,60.046
			c51.352,22.027,107.344,28.878,162.105,28.696c49.468-0.165,96.076-12.632,144.828-18.892c24.215-3.109,48.424-2.079,72.34,3.206
			c70.079,15.486,159.27-6.97,198.578-78.386C699.389,366.872,705.16,338.103,704.467,309.174z"/>
		<path style="opacity:0.7;fill:#FFFFFF;" d="M704.467,309.174c-2.582-107.896-84.564-191.872-166.564-236.965
			c-44.988-24.74-96.878-42.34-147.563-34.683c-26.616,4.021-50.235,18.7-73.419,32.766c-24.765,15.025-50.185,25.665-76.547,36.386
			c-37.542,15.267-75.433,29.91-111.542,49.064c-28.879,15.319-58.174,33.594-78.668,61.482
			C14.787,265.363,12.61,344.662,38.948,398.281c14.504,29.528,40.51,48.154,68.235,60.046
			c51.352,22.027,107.344,28.878,162.105,28.696c49.468-0.165,96.076-12.632,144.828-18.892c24.215-3.109,48.424-2.079,72.34,3.206
			c70.079,15.486,159.27-6.97,198.578-78.386C699.389,366.872,705.16,338.103,704.467,309.174z"/>
	</g>
</g>
<g id="Money_3">
	<g>
		<g>
			<path style="fill:none;stroke:#263238;stroke-miterlimit:10;" d="M576.549,221.719v-4.257c-3.143-0.122-5.493-1.129-7.049-3.021
				c-1.556-1.892-2.396-4.715-2.518-8.468l6.454-1.099c0.061,1.526,0.221,2.8,0.481,3.822c0.259,1.023,0.648,1.786,1.167,2.289
				c0.518,0.504,1.19,0.755,2.014,0.755c0.946,0,1.594-0.305,1.946-0.915c0.35-0.61,0.526-1.312,0.526-2.106
				c0-1.556-0.359-2.861-1.075-3.914c-0.718-1.053-1.702-2.113-2.953-3.181l-3.891-3.342c-0.885-0.824-1.678-1.663-2.38-2.518
				c-0.702-0.854-1.258-1.831-1.671-2.93c-0.412-1.098-0.618-2.395-0.618-3.891c0-2.868,0.816-5.104,2.449-6.706
				c1.632-1.602,3.822-2.51,6.568-2.724v-4.074h2.197v4.074c1.648,0.092,2.998,0.466,4.051,1.122
				c1.053,0.657,1.854,1.48,2.403,2.472c0.549,0.992,0.946,2.076,1.19,3.25c0.244,1.175,0.397,2.311,0.458,3.41l-6.546,0.961
				c-0.031-1.129-0.122-2.128-0.275-2.998c-0.153-0.87-0.427-1.548-0.824-2.037c-0.397-0.488-1.007-0.717-1.831-0.687
				c-0.854,0.031-1.503,0.366-1.945,1.007c-0.443,0.641-0.664,1.358-0.664,2.151c0,1.404,0.336,2.534,1.007,3.387
				c0.671,0.855,1.434,1.679,2.289,2.472l3.799,3.296c1.007,0.915,1.938,1.908,2.792,2.976c0.854,1.068,1.541,2.251,2.06,3.547
				c0.518,1.298,0.778,2.785,0.778,4.463c0,1.618-0.328,3.09-0.984,4.417c-0.657,1.327-1.602,2.403-2.838,3.227
				c-1.236,0.824-2.693,1.312-4.371,1.465v4.303H576.549z"/>
		</g>
		
			<ellipse transform="matrix(0.9868 -0.1619 0.1619 0.9868 -24.5438 96.0312)" style="fill:none;stroke:#263238;stroke-miterlimit:10;" cx="576.834" cy="198.58" rx="34.794" ry="34.794"/>
		
			<ellipse transform="matrix(0.4012 -0.916 0.916 0.4012 163.5188 647.2921)" style="fill:none;stroke:#263238;stroke-miterlimit:10;" cx="576.834" cy="198.58" rx="29.25" ry="29.25"/>
	</g>
	<g>
		<g>
			<path style="fill:none;stroke:#263238;stroke-miterlimit:10;" d="M146.708,137.084v-3.389c-2.502-0.097-4.372-0.898-5.611-2.405
				c-1.239-1.506-1.908-3.753-2.004-6.74l5.137-0.875c0.048,1.215,0.176,2.229,0.383,3.042c0.206,0.814,0.516,1.421,0.929,1.822
				c0.413,0.401,0.947,0.601,1.603,0.601c0.753,0,1.269-0.242,1.549-0.729c0.279-0.486,0.419-1.044,0.419-1.676
				c0-1.239-0.286-2.277-0.856-3.115c-0.571-0.838-1.355-1.681-2.35-2.532l-3.097-2.66c-0.705-0.656-1.336-1.324-1.895-2.004
				c-0.559-0.68-1.002-1.457-1.33-2.332c-0.328-0.874-0.492-1.907-0.492-3.097c0-2.283,0.649-4.062,1.949-5.338
				c1.299-1.275,3.042-1.998,5.228-2.168v-3.243h1.749v3.243c1.311,0.073,2.386,0.37,3.224,0.893
				c0.838,0.523,1.476,1.178,1.913,1.967c0.437,0.79,0.753,1.652,0.947,2.587c0.194,0.935,0.316,1.84,0.365,2.714l-5.21,0.765
				c-0.024-0.898-0.097-1.694-0.219-2.386c-0.121-0.692-0.34-1.232-0.656-1.621c-0.316-0.388-0.802-0.57-1.457-0.546
				c-0.68,0.024-1.197,0.291-1.548,0.801c-0.353,0.51-0.529,1.081-0.529,1.712c0,1.118,0.267,2.017,0.802,2.696
				c0.534,0.68,1.141,1.336,1.822,1.967l3.024,2.623c0.802,0.729,1.543,1.518,2.223,2.368c0.68,0.85,1.226,1.791,1.639,2.824
				c0.413,1.033,0.619,2.217,0.619,3.552c0,1.288-0.261,2.459-0.783,3.516c-0.523,1.056-1.275,1.913-2.259,2.568
				c-0.984,0.656-2.144,1.044-3.479,1.166v3.425H146.708z"/>
		</g>
		<circle style="fill:none;stroke:#263238;stroke-miterlimit:10;" cx="146.935" cy="118.667" r="27.695"/>
		<circle style="fill:none;stroke:#263238;stroke-miterlimit:10;" cx="146.935" cy="118.667" r="23.282"/>
	</g>
	<g>
		<g>
			<path style="fill:none;stroke:#263238;stroke-miterlimit:10;" d="M702.943,289.12v-3.388c-2.502-0.097-4.372-0.898-5.611-2.405
				c-1.239-1.506-1.907-3.753-2.004-6.74l5.137-0.875c0.049,1.215,0.176,2.229,0.383,3.042c0.206,0.814,0.516,1.421,0.929,1.822
				c0.413,0.401,0.947,0.601,1.603,0.601c0.753,0,1.269-0.242,1.549-0.729c0.279-0.486,0.419-1.044,0.419-1.676
				c0-1.239-0.286-2.277-0.856-3.115c-0.571-0.838-1.355-1.682-2.35-2.532l-3.097-2.66c-0.705-0.656-1.336-1.324-1.895-2.004
				c-0.559-0.68-1.002-1.457-1.33-2.332c-0.328-0.874-0.492-1.907-0.492-3.097c0-2.283,0.649-4.062,1.949-5.338
				c1.299-1.275,3.042-1.997,5.228-2.168v-3.243h1.749v3.243c1.311,0.073,2.386,0.371,3.224,0.893
				c0.838,0.523,1.476,1.178,1.913,1.967c0.437,0.79,0.753,1.652,0.947,2.587c0.194,0.935,0.316,1.84,0.365,2.714l-5.211,0.765
				c-0.024-0.898-0.097-1.694-0.219-2.386c-0.122-0.692-0.34-1.232-0.656-1.621c-0.316-0.388-0.802-0.57-1.457-0.546
				c-0.68,0.024-1.197,0.291-1.548,0.801c-0.353,0.51-0.528,1.081-0.528,1.712c0,1.117,0.267,2.017,0.802,2.696
				c0.534,0.68,1.141,1.336,1.821,1.967l3.024,2.623c0.802,0.729,1.542,1.518,2.223,2.368c0.68,0.85,1.226,1.791,1.64,2.824
				c0.413,1.033,0.619,2.217,0.619,3.552c0,1.288-0.261,2.459-0.783,3.516c-0.522,1.057-1.275,1.913-2.259,2.569
				c-0.984,0.656-2.144,1.044-3.479,1.166v3.425H702.943z"/>
		</g>
		<circle style="fill:none;stroke:#263238;stroke-miterlimit:10;" cx="703.17" cy="270.703" r="27.695"/>
		
			<ellipse transform="matrix(0.9952 -0.0981 0.0981 0.9952 -23.162 70.2785)" style="fill:none;stroke:#263238;stroke-miterlimit:10;" cx="703.17" cy="270.703" rx="23.282" ry="23.282"/>
	</g>
	<g>
		<g>
			<path style="fill:none;stroke:#263238;stroke-miterlimit:10;" d="M679.277,165.111v-3.388c-2.502-0.097-4.372-0.898-5.611-2.405
				c-1.239-1.506-1.907-3.753-2.004-6.74l5.137-0.874c0.049,1.215,0.176,2.229,0.383,3.042c0.206,0.814,0.516,1.421,0.929,1.822
				c0.413,0.401,0.947,0.601,1.603,0.601c0.753,0,1.269-0.242,1.549-0.729c0.279-0.486,0.419-1.044,0.419-1.676
				c0-1.239-0.286-2.277-0.856-3.115c-0.571-0.838-1.355-1.681-2.35-2.532l-3.097-2.66c-0.705-0.656-1.336-1.324-1.894-2.004
				c-0.559-0.68-1.002-1.457-1.33-2.332c-0.328-0.874-0.492-1.907-0.492-3.097c0-2.283,0.649-4.063,1.949-5.338
				c1.299-1.275,3.042-1.997,5.228-2.168v-3.243h1.749v3.243c1.311,0.073,2.386,0.37,3.224,0.893
				c0.838,0.523,1.476,1.178,1.913,1.967c0.437,0.79,0.753,1.652,0.947,2.587c0.194,0.935,0.316,1.84,0.365,2.714l-5.211,0.765
				c-0.024-0.898-0.097-1.694-0.219-2.386c-0.121-0.692-0.34-1.232-0.656-1.621c-0.316-0.388-0.802-0.57-1.457-0.546
				c-0.68,0.025-1.196,0.291-1.548,0.801c-0.353,0.51-0.528,1.081-0.528,1.712c0,1.118,0.267,2.017,0.802,2.696
				c0.534,0.68,1.141,1.336,1.822,1.967l3.024,2.623c0.802,0.729,1.543,1.518,2.223,2.368c0.68,0.851,1.226,1.792,1.639,2.824
				c0.413,1.033,0.619,2.217,0.619,3.552c0,1.288-0.261,2.459-0.783,3.516c-0.523,1.057-1.275,1.913-2.259,2.569
				c-0.984,0.656-2.144,1.044-3.479,1.166v3.425H679.277z"/>
		</g>
		<circle style="fill:none;stroke:#263238;stroke-miterlimit:10;" cx="679.504" cy="146.694" r="27.695"/>
		
			<ellipse transform="matrix(0.9735 -0.2286 0.2286 0.9735 -15.5411 159.228)" style="fill:none;stroke:#263238;stroke-miterlimit:10;" cx="679.504" cy="146.694" rx="23.282" ry="23.282"/>
	</g>
	<g>
		<g>
			<path style="fill:none;stroke:#263238;stroke-miterlimit:10;" d="M42.84,406.764v-3.388c-2.502-0.097-4.372-0.898-5.611-2.405
				c-1.239-1.506-1.907-3.753-2.004-6.74l5.137-0.874c0.049,1.215,0.176,2.229,0.383,3.042c0.206,0.814,0.516,1.421,0.929,1.822
				c0.413,0.401,0.947,0.601,1.603,0.601c0.753,0,1.269-0.242,1.549-0.729c0.279-0.486,0.419-1.044,0.419-1.676
				c0-1.239-0.286-2.277-0.856-3.115c-0.571-0.838-1.354-1.682-2.35-2.532l-3.097-2.66c-0.705-0.656-1.336-1.324-1.895-2.004
				c-0.559-0.68-1.002-1.457-1.33-2.332c-0.328-0.874-0.492-1.907-0.492-3.097c0-2.283,0.65-4.062,1.949-5.337
				c1.299-1.275,3.042-1.998,5.228-2.168v-3.243h1.749v3.243c1.311,0.073,2.386,0.371,3.224,0.893
				c0.838,0.523,1.476,1.178,1.913,1.967c0.437,0.79,0.753,1.652,0.947,2.587c0.194,0.935,0.316,1.84,0.364,2.714l-5.21,0.765
				c-0.024-0.898-0.097-1.694-0.219-2.386c-0.121-0.692-0.34-1.232-0.656-1.621c-0.316-0.388-0.802-0.57-1.457-0.546
				c-0.68,0.024-1.197,0.291-1.548,0.801c-0.353,0.51-0.528,1.081-0.528,1.712c0,1.118,0.267,2.017,0.802,2.696
				c0.534,0.68,1.141,1.336,1.822,1.967l3.024,2.623c0.802,0.729,1.542,1.518,2.223,2.368c0.68,0.85,1.226,1.792,1.639,2.824
				c0.413,1.033,0.619,2.217,0.619,3.552c0,1.288-0.261,2.459-0.783,3.516c-0.522,1.057-1.275,1.913-2.259,2.569
				c-0.984,0.656-2.144,1.044-3.479,1.166v3.425H42.84z"/>
		</g>
		<circle style="fill:none;stroke:#263238;stroke-miterlimit:10;" cx="43.067" cy="388.347" r="27.695"/>
		<circle style="fill:none;stroke:#263238;stroke-miterlimit:10;" cx="43.067" cy="388.347" r="23.282"/>
	</g>
</g>
<g id="Money_2">
	<g>
		<g>
			<g>
				<path style="fill:#FFFFFF;stroke:#263238;stroke-linecap:round;stroke-linejoin:round;stroke-miterlimit:10;" d="
					M654.183,446.563v8.23c0,1.01,14.742,1.829,32.928,1.829s32.928-0.819,32.928-1.829v-8.23H654.183z"/>
				
					<ellipse style="fill:#FFFFFF;stroke:#263238;stroke-linecap:round;stroke-linejoin:round;stroke-miterlimit:10;" cx="687.111" cy="446.563" rx="32.928" ry="1.829"/>
				
					<ellipse style="fill:#FFFFFF;stroke:#263238;stroke-linecap:round;stroke-linejoin:round;stroke-miterlimit:10;" cx="687.111" cy="446.332" rx="25.292" ry="1.174"/>
				
					<line style="fill:none;stroke:#263238;stroke-linecap:round;stroke-linejoin:round;stroke-miterlimit:10;" x1="716.756" y1="447.501" x2="716.756" y2="453.884"/>
				
					<line style="fill:none;stroke:#263238;stroke-linecap:round;stroke-linejoin:round;stroke-miterlimit:10;" x1="712.053" y1="448.173" x2="712.053" y2="454.892"/>
				
					<line style="fill:none;stroke:#263238;stroke-linecap:round;stroke-linejoin:round;stroke-miterlimit:10;" x1="704.998" y1="448.341" x2="704.998" y2="453.548"/>
				
					<line style="fill:none;stroke:#263238;stroke-linecap:round;stroke-linejoin:round;stroke-miterlimit:10;" x1="695.759" y1="451.701" x2="695.759" y2="456.236"/>
				
					<line style="fill:none;stroke:#263238;stroke-linecap:round;stroke-linejoin:round;stroke-miterlimit:10;" x1="685.849" y1="456.74" x2="685.849" y2="451.029"/>
				
					<line style="fill:none;stroke:#263238;stroke-linecap:round;stroke-linejoin:round;stroke-miterlimit:10;" x1="656.286" y1="447.501" x2="656.286" y2="450.357"/>
				
					<line style="fill:none;stroke:#263238;stroke-linecap:round;stroke-linejoin:round;stroke-miterlimit:10;" x1="660.15" y1="455.564" x2="660.15" y2="452.204"/>
				
					<line style="fill:none;stroke:#263238;stroke-linecap:round;stroke-linejoin:round;stroke-miterlimit:10;" x1="675.435" y1="455.9" x2="675.435" y2="451.868"/>
			</g>
			<g>
				<path style="fill:#FFFFFF;stroke:#263238;stroke-linecap:round;stroke-linejoin:round;stroke-miterlimit:10;" d="
					M653.259,438.381v8.23c0,1.01,14.742,1.829,32.928,1.829s32.928-0.819,32.928-1.829v-8.23H653.259z"/>
				
					<ellipse style="fill:#FFFFFF;stroke:#263238;stroke-linecap:round;stroke-linejoin:round;stroke-miterlimit:10;" cx="686.187" cy="438.381" rx="32.928" ry="1.829"/>
				
					<ellipse style="fill:#FFFFFF;stroke:#263238;stroke-linecap:round;stroke-linejoin:round;stroke-miterlimit:10;" cx="686.187" cy="438.15" rx="25.292" ry="1.174"/>
				
					<line style="fill:none;stroke:#263238;stroke-linecap:round;stroke-linejoin:round;stroke-miterlimit:10;" x1="715.832" y1="439.319" x2="715.832" y2="445.702"/>
				
					<line style="fill:none;stroke:#263238;stroke-linecap:round;stroke-linejoin:round;stroke-miterlimit:10;" x1="711.129" y1="439.991" x2="711.129" y2="446.71"/>
				
					<line style="fill:none;stroke:#263238;stroke-linecap:round;stroke-linejoin:round;stroke-miterlimit:10;" x1="704.074" y1="440.159" x2="704.074" y2="445.366"/>
				
					<line style="fill:none;stroke:#263238;stroke-linecap:round;stroke-linejoin:round;stroke-miterlimit:10;" x1="694.836" y1="443.518" x2="694.836" y2="448.054"/>
				
					<line style="fill:none;stroke:#263238;stroke-linecap:round;stroke-linejoin:round;stroke-miterlimit:10;" x1="684.925" y1="448.558" x2="684.925" y2="442.847"/>
				
					<line style="fill:none;stroke:#263238;stroke-linecap:round;stroke-linejoin:round;stroke-miterlimit:10;" x1="655.363" y1="439.319" x2="655.363" y2="442.175"/>
				
					<line style="fill:none;stroke:#263238;stroke-linecap:round;stroke-linejoin:round;stroke-miterlimit:10;" x1="659.226" y1="447.382" x2="659.226" y2="444.022"/>
				
					<line style="fill:none;stroke:#263238;stroke-linecap:round;stroke-linejoin:round;stroke-miterlimit:10;" x1="674.511" y1="447.718" x2="674.511" y2="443.686"/>
			</g>
			<g>
				<path style="fill:#FFFFFF;stroke:#263238;stroke-linecap:round;stroke-linejoin:round;stroke-miterlimit:10;" d="
					M653.259,430.135v8.23c0,1.01,14.742,1.829,32.928,1.829s32.928-0.819,32.928-1.829v-8.23H653.259z"/>
				
					<ellipse style="fill:#FFFFFF;stroke:#263238;stroke-linecap:round;stroke-linejoin:round;stroke-miterlimit:10;" cx="686.187" cy="430.135" rx="32.928" ry="1.829"/>
				
					<ellipse style="fill:#FFFFFF;stroke:#263238;stroke-linecap:round;stroke-linejoin:round;stroke-miterlimit:10;" cx="686.187" cy="429.905" rx="25.292" ry="1.174"/>
				
					<line style="fill:none;stroke:#263238;stroke-linecap:round;stroke-linejoin:round;stroke-miterlimit:10;" x1="715.832" y1="431.074" x2="715.832" y2="437.456"/>
				
					<line style="fill:none;stroke:#263238;stroke-linecap:round;stroke-linejoin:round;stroke-miterlimit:10;" x1="711.129" y1="431.746" x2="711.129" y2="438.464"/>
				
					<line style="fill:none;stroke:#263238;stroke-linecap:round;stroke-linejoin:round;stroke-miterlimit:10;" x1="704.074" y1="431.913" x2="704.074" y2="437.121"/>
				
					<line style="fill:none;stroke:#263238;stroke-linecap:round;stroke-linejoin:round;stroke-miterlimit:10;" x1="694.836" y1="435.273" x2="694.836" y2="439.808"/>
				
					<line style="fill:none;stroke:#263238;stroke-linecap:round;stroke-linejoin:round;stroke-miterlimit:10;" x1="684.925" y1="440.312" x2="684.925" y2="434.601"/>
				
					<line style="fill:none;stroke:#263238;stroke-linecap:round;stroke-linejoin:round;stroke-miterlimit:10;" x1="655.363" y1="431.074" x2="655.363" y2="433.929"/>
				
					<line style="fill:none;stroke:#263238;stroke-linecap:round;stroke-linejoin:round;stroke-miterlimit:10;" x1="659.226" y1="439.136" x2="659.226" y2="435.777"/>
				
					<line style="fill:none;stroke:#263238;stroke-linecap:round;stroke-linejoin:round;stroke-miterlimit:10;" x1="674.511" y1="439.472" x2="674.511" y2="435.441"/>
			</g>
			<g>
				<path style="fill:#FFFFFF;stroke:#263238;stroke-linecap:round;stroke-linejoin:round;stroke-miterlimit:10;" d="
					M654.758,421.894v8.231c0,1.01,14.742,1.829,32.928,1.829c18.185,0,32.928-0.819,32.928-1.829v-8.231H654.758z"/>
				
					<ellipse style="fill:#FFFFFF;stroke:#263238;stroke-linecap:round;stroke-linejoin:round;stroke-miterlimit:10;" cx="687.685" cy="421.894" rx="32.928" ry="1.829"/>
				
					<ellipse style="fill:#FFFFFF;stroke:#263238;stroke-linecap:round;stroke-linejoin:round;stroke-miterlimit:10;" cx="687.685" cy="421.663" rx="25.292" ry="1.174"/>
				
					<line style="fill:none;stroke:#263238;stroke-linecap:round;stroke-linejoin:round;stroke-miterlimit:10;" x1="717.331" y1="422.832" x2="717.331" y2="429.215"/>
				
					<line style="fill:none;stroke:#263238;stroke-linecap:round;stroke-linejoin:round;stroke-miterlimit:10;" x1="712.627" y1="423.504" x2="712.627" y2="430.223"/>
				
					<line style="fill:none;stroke:#263238;stroke-linecap:round;stroke-linejoin:round;stroke-miterlimit:10;" x1="705.573" y1="423.672" x2="705.573" y2="428.879"/>
				
					<line style="fill:none;stroke:#263238;stroke-linecap:round;stroke-linejoin:round;stroke-miterlimit:10;" x1="696.334" y1="427.032" x2="696.334" y2="431.567"/>
				
					<line style="fill:none;stroke:#263238;stroke-linecap:round;stroke-linejoin:round;stroke-miterlimit:10;" x1="686.424" y1="432.071" x2="686.424" y2="426.36"/>
				
					<line style="fill:none;stroke:#263238;stroke-linecap:round;stroke-linejoin:round;stroke-miterlimit:10;" x1="656.861" y1="422.832" x2="656.861" y2="425.688"/>
				
					<line style="fill:none;stroke:#263238;stroke-linecap:round;stroke-linejoin:round;stroke-miterlimit:10;" x1="660.724" y1="430.895" x2="660.724" y2="427.535"/>
				
					<line style="fill:none;stroke:#263238;stroke-linecap:round;stroke-linejoin:round;stroke-miterlimit:10;" x1="676.01" y1="431.231" x2="676.01" y2="427.199"/>
			</g>
			<g>
				<path style="fill:#FFFFFF;stroke:#263238;stroke-linecap:round;stroke-linejoin:round;stroke-miterlimit:10;" d="
					M655.007,413.653v8.231c0,1.01,14.742,1.829,32.928,1.829c18.185,0,32.928-0.819,32.928-1.829v-8.231H655.007z"/>
				
					<ellipse style="fill:#FFFFFF;stroke:#263238;stroke-linecap:round;stroke-linejoin:round;stroke-miterlimit:10;" cx="687.935" cy="413.653" rx="32.928" ry="1.829"/>
				
					<ellipse style="fill:#FFFFFF;stroke:#263238;stroke-linecap:round;stroke-linejoin:round;stroke-miterlimit:10;" cx="687.935" cy="413.422" rx="25.292" ry="1.174"/>
				
					<line style="fill:none;stroke:#263238;stroke-linecap:round;stroke-linejoin:round;stroke-miterlimit:10;" x1="717.58" y1="414.591" x2="717.58" y2="420.974"/>
				
					<line style="fill:none;stroke:#263238;stroke-linecap:round;stroke-linejoin:round;stroke-miterlimit:10;" x1="712.877" y1="415.263" x2="712.877" y2="421.982"/>
				
					<line style="fill:none;stroke:#263238;stroke-linecap:round;stroke-linejoin:round;stroke-miterlimit:10;" x1="705.822" y1="415.431" x2="705.822" y2="420.638"/>
				
					<line style="fill:none;stroke:#263238;stroke-linecap:round;stroke-linejoin:round;stroke-miterlimit:10;" x1="696.584" y1="418.79" x2="696.584" y2="423.326"/>
				
					<line style="fill:none;stroke:#263238;stroke-linecap:round;stroke-linejoin:round;stroke-miterlimit:10;" x1="686.674" y1="423.829" x2="686.674" y2="418.118"/>
				
					<line style="fill:none;stroke:#263238;stroke-linecap:round;stroke-linejoin:round;stroke-miterlimit:10;" x1="657.111" y1="414.591" x2="657.111" y2="417.447"/>
				
					<line style="fill:none;stroke:#263238;stroke-linecap:round;stroke-linejoin:round;stroke-miterlimit:10;" x1="660.974" y1="422.654" x2="660.974" y2="419.294"/>
				
					<line style="fill:none;stroke:#263238;stroke-linecap:round;stroke-linejoin:round;stroke-miterlimit:10;" x1="676.259" y1="422.99" x2="676.259" y2="418.958"/>
			</g>
			<g>
				<path style="fill:#FFFFFF;stroke:#263238;stroke-linecap:round;stroke-linejoin:round;stroke-miterlimit:10;" d="
					M654.758,405.412v8.231c0,1.01,14.742,1.829,32.928,1.829c18.185,0,32.928-0.819,32.928-1.829v-8.231H654.758z"/>
				
					<ellipse style="fill:#FFFFFF;stroke:#263238;stroke-linecap:round;stroke-linejoin:round;stroke-miterlimit:10;" cx="687.685" cy="405.412" rx="32.928" ry="1.829"/>
				
					<ellipse style="fill:#FFFFFF;stroke:#263238;stroke-linecap:round;stroke-linejoin:round;stroke-miterlimit:10;" cx="687.685" cy="405.181" rx="25.292" ry="1.174"/>
				
					<line style="fill:none;stroke:#263238;stroke-linecap:round;stroke-linejoin:round;stroke-miterlimit:10;" x1="717.331" y1="406.35" x2="717.331" y2="412.733"/>
				
					<line style="fill:none;stroke:#263238;stroke-linecap:round;stroke-linejoin:round;stroke-miterlimit:10;" x1="712.627" y1="407.022" x2="712.627" y2="413.741"/>
				
					<line style="fill:none;stroke:#263238;stroke-linecap:round;stroke-linejoin:round;stroke-miterlimit:10;" x1="705.573" y1="407.19" x2="705.573" y2="412.397"/>
				
					<line style="fill:none;stroke:#263238;stroke-linecap:round;stroke-linejoin:round;stroke-miterlimit:10;" x1="696.334" y1="410.549" x2="696.334" y2="415.084"/>
				
					<line style="fill:none;stroke:#263238;stroke-linecap:round;stroke-linejoin:round;stroke-miterlimit:10;" x1="686.424" y1="415.588" x2="686.424" y2="409.877"/>
				
					<line style="fill:none;stroke:#263238;stroke-linecap:round;stroke-linejoin:round;stroke-miterlimit:10;" x1="656.861" y1="406.35" x2="656.861" y2="409.205"/>
				
					<line style="fill:none;stroke:#263238;stroke-linecap:round;stroke-linejoin:round;stroke-miterlimit:10;" x1="660.724" y1="414.412" x2="660.724" y2="411.053"/>
				
					<line style="fill:none;stroke:#263238;stroke-linecap:round;stroke-linejoin:round;stroke-miterlimit:10;" x1="676.01" y1="414.748" x2="676.01" y2="410.717"/>
			</g>
			<g>
				<path style="fill:#FFFFFF;stroke:#263238;stroke-linecap:round;stroke-linejoin:round;stroke-miterlimit:10;" d="
					M655.257,397.17v8.231c0,1.01,14.742,1.829,32.928,1.829c18.185,0,32.928-0.819,32.928-1.829v-8.231H655.257z"/>
				
					<ellipse style="fill:#FFFFFF;stroke:#263238;stroke-linecap:round;stroke-linejoin:round;stroke-miterlimit:10;" cx="688.185" cy="397.17" rx="32.928" ry="1.829"/>
				<path style="fill:#FFFFFF;stroke:#263238;stroke-linecap:round;stroke-linejoin:round;stroke-miterlimit:10;" d="
					M713.477,396.94c0,0.648-11.323,1.174-25.292,1.174c-13.968,0-25.292-0.526-25.292-1.174c0-0.649,11.323-1.174,25.292-1.174
					C702.153,395.765,713.477,396.291,713.477,396.94z"/>
				
					<line style="fill:none;stroke:#263238;stroke-linecap:round;stroke-linejoin:round;stroke-miterlimit:10;" x1="717.83" y1="398.109" x2="717.83" y2="404.492"/>
				
					<line style="fill:none;stroke:#263238;stroke-linecap:round;stroke-linejoin:round;stroke-miterlimit:10;" x1="713.127" y1="398.78" x2="713.127" y2="405.499"/>
				
					<line style="fill:none;stroke:#263238;stroke-linecap:round;stroke-linejoin:round;stroke-miterlimit:10;" x1="706.072" y1="398.948" x2="706.072" y2="404.156"/>
				
					<line style="fill:none;stroke:#263238;stroke-linecap:round;stroke-linejoin:round;stroke-miterlimit:10;" x1="696.834" y1="402.308" x2="696.834" y2="406.843"/>
				
					<line style="fill:none;stroke:#263238;stroke-linecap:round;stroke-linejoin:round;stroke-miterlimit:10;" x1="686.923" y1="407.347" x2="686.923" y2="401.636"/>
				
					<line style="fill:none;stroke:#263238;stroke-linecap:round;stroke-linejoin:round;stroke-miterlimit:10;" x1="657.36" y1="398.109" x2="657.36" y2="400.964"/>
				
					<line style="fill:none;stroke:#263238;stroke-linecap:round;stroke-linejoin:round;stroke-miterlimit:10;" x1="661.224" y1="406.171" x2="661.224" y2="402.812"/>
				
					<line style="fill:none;stroke:#263238;stroke-linecap:round;stroke-linejoin:round;stroke-miterlimit:10;" x1="676.509" y1="406.507" x2="676.509" y2="402.476"/>
			</g>
			<g>
				<path style="fill:#FFFFFF;stroke:#263238;stroke-linecap:round;stroke-linejoin:round;stroke-miterlimit:10;" d="
					M653.259,388.929v8.23c0,1.01,14.742,1.829,32.928,1.829s32.928-0.819,32.928-1.829v-8.23H653.259z"/>
				<path style="fill:#FFFFFF;stroke:#263238;stroke-linecap:round;stroke-linejoin:round;stroke-miterlimit:10;" d="
					M719.115,388.929c0,1.01-14.742,1.829-32.928,1.829s-32.928-0.819-32.928-1.829c0-1.01,14.742-1.829,32.928-1.829
					S719.115,387.919,719.115,388.929z"/>
				<path style="fill:#FFFFFF;stroke:#263238;stroke-linecap:round;stroke-linejoin:round;stroke-miterlimit:10;" d="
					M711.479,388.698c0,0.649-11.323,1.174-25.292,1.174s-25.292-0.526-25.292-1.174c0-0.648,11.323-1.174,25.292-1.174
					S711.479,388.05,711.479,388.698z"/>
				
					<line style="fill:none;stroke:#263238;stroke-linecap:round;stroke-linejoin:round;stroke-miterlimit:10;" x1="715.832" y1="389.867" x2="715.832" y2="396.25"/>
				
					<line style="fill:none;stroke:#263238;stroke-linecap:round;stroke-linejoin:round;stroke-miterlimit:10;" x1="711.129" y1="390.539" x2="711.129" y2="397.258"/>
				
					<line style="fill:none;stroke:#263238;stroke-linecap:round;stroke-linejoin:round;stroke-miterlimit:10;" x1="704.074" y1="390.707" x2="704.074" y2="395.914"/>
				
					<line style="fill:none;stroke:#263238;stroke-linecap:round;stroke-linejoin:round;stroke-miterlimit:10;" x1="694.836" y1="394.067" x2="694.836" y2="398.602"/>
				
					<line style="fill:none;stroke:#263238;stroke-linecap:round;stroke-linejoin:round;stroke-miterlimit:10;" x1="684.925" y1="399.106" x2="684.925" y2="393.395"/>
				
					<line style="fill:none;stroke:#263238;stroke-linecap:round;stroke-linejoin:round;stroke-miterlimit:10;" x1="655.363" y1="389.867" x2="655.363" y2="392.723"/>
				
					<line style="fill:none;stroke:#263238;stroke-linecap:round;stroke-linejoin:round;stroke-miterlimit:10;" x1="659.226" y1="397.93" x2="659.226" y2="394.571"/>
				
					<line style="fill:none;stroke:#263238;stroke-linecap:round;stroke-linejoin:round;stroke-miterlimit:10;" x1="674.511" y1="398.266" x2="674.511" y2="394.235"/>
			</g>
			<g>
				<path style="fill:#FFFFFF;stroke:#263238;stroke-linecap:round;stroke-linejoin:round;stroke-miterlimit:10;" d="
					M652.26,380.688v8.231c0,1.01,14.742,1.829,32.928,1.829c18.186,0,32.928-0.819,32.928-1.829v-8.231H652.26z"/>
				
					<ellipse style="fill:#FFFFFF;stroke:#263238;stroke-linecap:round;stroke-linejoin:round;stroke-miterlimit:10;" cx="685.188" cy="380.688" rx="32.928" ry="1.829"/>
				<path style="fill:#FFFFFF;stroke:#263238;stroke-linecap:round;stroke-linejoin:round;stroke-miterlimit:10;" d="
					M710.48,380.457c0,0.649-11.323,1.174-25.292,1.174c-13.968,0-25.292-0.526-25.292-1.174c0-0.648,11.323-1.174,25.292-1.174
					C699.156,379.283,710.48,379.809,710.48,380.457z"/>
				
					<line style="fill:none;stroke:#263238;stroke-linecap:round;stroke-linejoin:round;stroke-miterlimit:10;" x1="714.833" y1="381.626" x2="714.833" y2="388.009"/>
				
					<line style="fill:none;stroke:#263238;stroke-linecap:round;stroke-linejoin:round;stroke-miterlimit:10;" x1="710.13" y1="382.298" x2="710.13" y2="389.017"/>
				
					<line style="fill:none;stroke:#263238;stroke-linecap:round;stroke-linejoin:round;stroke-miterlimit:10;" x1="703.075" y1="382.466" x2="703.075" y2="387.673"/>
				
					<line style="fill:none;stroke:#263238;stroke-linecap:round;stroke-linejoin:round;stroke-miterlimit:10;" x1="693.837" y1="385.825" x2="693.837" y2="390.361"/>
				
					<line style="fill:none;stroke:#263238;stroke-linecap:round;stroke-linejoin:round;stroke-miterlimit:10;" x1="683.927" y1="390.865" x2="683.927" y2="385.154"/>
				
					<line style="fill:none;stroke:#263238;stroke-linecap:round;stroke-linejoin:round;stroke-miterlimit:10;" x1="654.364" y1="381.626" x2="654.364" y2="384.482"/>
				
					<line style="fill:none;stroke:#263238;stroke-linecap:round;stroke-linejoin:round;stroke-miterlimit:10;" x1="658.227" y1="389.689" x2="658.227" y2="386.329"/>
				
					<line style="fill:none;stroke:#263238;stroke-linecap:round;stroke-linejoin:round;stroke-miterlimit:10;" x1="673.512" y1="390.025" x2="673.512" y2="385.993"/>
			</g>
			<g>
				<path style="fill:#FFFFFF;stroke:#263238;stroke-linecap:round;stroke-linejoin:round;stroke-miterlimit:10;" d="
					M650.512,372.447v8.231c0,1.01,14.742,1.829,32.928,1.829c18.185,0,32.928-0.819,32.928-1.829v-8.231H650.512z"/>
				
					<ellipse style="fill:#FFFFFF;stroke:#263238;stroke-linecap:round;stroke-linejoin:round;stroke-miterlimit:10;" cx="683.44" cy="372.447" rx="32.928" ry="1.829"/>
				<path style="fill:#FFFFFF;stroke:#263238;stroke-linecap:round;stroke-linejoin:round;stroke-miterlimit:10;" d="
					M708.732,372.216c0,0.649-11.323,1.174-25.292,1.174c-13.968,0-25.292-0.526-25.292-1.174c0-0.648,11.323-1.174,25.292-1.174
					C697.408,371.042,708.732,371.567,708.732,372.216z"/>
				
					<line style="fill:none;stroke:#263238;stroke-linecap:round;stroke-linejoin:round;stroke-miterlimit:10;" x1="713.085" y1="373.385" x2="713.085" y2="379.768"/>
				
					<line style="fill:none;stroke:#263238;stroke-linecap:round;stroke-linejoin:round;stroke-miterlimit:10;" x1="708.382" y1="374.057" x2="708.382" y2="380.776"/>
				
					<line style="fill:none;stroke:#263238;stroke-linecap:round;stroke-linejoin:round;stroke-miterlimit:10;" x1="701.327" y1="374.225" x2="701.327" y2="379.432"/>
				
					<line style="fill:none;stroke:#263238;stroke-linecap:round;stroke-linejoin:round;stroke-miterlimit:10;" x1="692.089" y1="377.584" x2="692.089" y2="382.119"/>
				
					<line style="fill:none;stroke:#263238;stroke-linecap:round;stroke-linejoin:round;stroke-miterlimit:10;" x1="682.178" y1="382.623" x2="682.178" y2="376.912"/>
				
					<line style="fill:none;stroke:#263238;stroke-linecap:round;stroke-linejoin:round;stroke-miterlimit:10;" x1="652.615" y1="373.385" x2="652.615" y2="376.241"/>
				
					<line style="fill:none;stroke:#263238;stroke-linecap:round;stroke-linejoin:round;stroke-miterlimit:10;" x1="656.479" y1="381.448" x2="656.479" y2="378.088"/>
				
					<line style="fill:none;stroke:#263238;stroke-linecap:round;stroke-linejoin:round;stroke-miterlimit:10;" x1="671.764" y1="381.784" x2="671.764" y2="377.752"/>
			</g>
			<g>
				<path style="fill:#FFFFFF;stroke:#263238;stroke-linecap:round;stroke-linejoin:round;stroke-miterlimit:10;" d="
					M653.259,364.205v8.231c0,1.01,14.742,1.829,32.928,1.829s32.928-0.819,32.928-1.829v-8.231H653.259z"/>
				
					<ellipse style="fill:#FFFFFF;stroke:#263238;stroke-linecap:round;stroke-linejoin:round;stroke-miterlimit:10;" cx="686.187" cy="364.205" rx="32.928" ry="1.829"/>
				
					<ellipse style="fill:#FFFFFF;stroke:#263238;stroke-linecap:round;stroke-linejoin:round;stroke-miterlimit:10;" cx="686.187" cy="363.975" rx="25.292" ry="1.174"/>
				
					<line style="fill:none;stroke:#263238;stroke-linecap:round;stroke-linejoin:round;stroke-miterlimit:10;" x1="715.832" y1="365.144" x2="715.832" y2="371.527"/>
				
					<line style="fill:none;stroke:#263238;stroke-linecap:round;stroke-linejoin:round;stroke-miterlimit:10;" x1="711.129" y1="365.816" x2="711.129" y2="372.534"/>
				
					<line style="fill:none;stroke:#263238;stroke-linecap:round;stroke-linejoin:round;stroke-miterlimit:10;" x1="704.074" y1="365.984" x2="704.074" y2="371.191"/>
				
					<line style="fill:none;stroke:#263238;stroke-linecap:round;stroke-linejoin:round;stroke-miterlimit:10;" x1="694.836" y1="369.343" x2="694.836" y2="373.878"/>
				
					<line style="fill:none;stroke:#263238;stroke-linecap:round;stroke-linejoin:round;stroke-miterlimit:10;" x1="684.925" y1="374.382" x2="684.925" y2="368.671"/>
				
					<line style="fill:none;stroke:#263238;stroke-linecap:round;stroke-linejoin:round;stroke-miterlimit:10;" x1="655.363" y1="365.144" x2="655.363" y2="367.999"/>
				
					<line style="fill:none;stroke:#263238;stroke-linecap:round;stroke-linejoin:round;stroke-miterlimit:10;" x1="659.226" y1="373.206" x2="659.226" y2="369.847"/>
				
					<line style="fill:none;stroke:#263238;stroke-linecap:round;stroke-linejoin:round;stroke-miterlimit:10;" x1="674.511" y1="373.542" x2="674.511" y2="369.511"/>
			</g>
			<g>
				<path style="fill:#FFFFFF;stroke:#263238;stroke-linecap:round;stroke-linejoin:round;stroke-miterlimit:10;" d="
					M651.012,355.964v8.23c0,1.01,14.742,1.829,32.928,1.829c18.185,0,32.928-0.819,32.928-1.829v-8.23H651.012z"/>
				<path style="fill:#FFFFFF;stroke:#263238;stroke-linecap:round;stroke-linejoin:round;stroke-miterlimit:10;" d="
					M716.867,355.964c0,1.01-14.742,1.829-32.928,1.829c-18.185,0-32.928-0.819-32.928-1.829c0-1.01,14.742-1.829,32.928-1.829
					C702.125,354.135,716.867,354.954,716.867,355.964z"/>
				<path style="fill:#FFFFFF;stroke:#263238;stroke-linecap:round;stroke-linejoin:round;stroke-miterlimit:10;" d="
					M709.231,355.733c0,0.648-11.323,1.174-25.292,1.174c-13.968,0-25.292-0.526-25.292-1.174c0-0.649,11.323-1.174,25.292-1.174
					C697.908,354.559,709.231,355.085,709.231,355.733z"/>
				
					<line style="fill:none;stroke:#263238;stroke-linecap:round;stroke-linejoin:round;stroke-miterlimit:10;" x1="713.584" y1="356.902" x2="713.584" y2="363.285"/>
				
					<line style="fill:none;stroke:#263238;stroke-linecap:round;stroke-linejoin:round;stroke-miterlimit:10;" x1="708.881" y1="357.574" x2="708.881" y2="364.293"/>
				
					<line style="fill:none;stroke:#263238;stroke-linecap:round;stroke-linejoin:round;stroke-miterlimit:10;" x1="701.826" y1="357.742" x2="701.826" y2="362.949"/>
				
					<line style="fill:none;stroke:#263238;stroke-linecap:round;stroke-linejoin:round;stroke-miterlimit:10;" x1="692.588" y1="361.102" x2="692.588" y2="365.637"/>
				
					<line style="fill:none;stroke:#263238;stroke-linecap:round;stroke-linejoin:round;stroke-miterlimit:10;" x1="682.678" y1="366.141" x2="682.678" y2="360.43"/>
				
					<line style="fill:none;stroke:#263238;stroke-linecap:round;stroke-linejoin:round;stroke-miterlimit:10;" x1="653.115" y1="356.902" x2="653.115" y2="359.758"/>
				
					<line style="fill:none;stroke:#263238;stroke-linecap:round;stroke-linejoin:round;stroke-miterlimit:10;" x1="656.978" y1="364.965" x2="656.978" y2="361.606"/>
				
					<line style="fill:none;stroke:#263238;stroke-linecap:round;stroke-linejoin:round;stroke-miterlimit:10;" x1="672.264" y1="365.301" x2="672.264" y2="361.27"/>
			</g>
			<g>
				<path style="fill:#FFFFFF;stroke:#263238;stroke-linecap:round;stroke-linejoin:round;stroke-miterlimit:10;" d="
					M653.259,347.723v8.231c0,1.01,14.742,1.829,32.928,1.829s32.928-0.819,32.928-1.829v-8.231H653.259z"/>
				<path style="fill:#FFFFFF;stroke:#263238;stroke-linecap:round;stroke-linejoin:round;stroke-miterlimit:10;" d="
					M719.115,347.723c0,1.01-14.742,1.829-32.928,1.829s-32.928-0.819-32.928-1.829c0-1.01,14.742-1.829,32.928-1.829
					S719.115,346.713,719.115,347.723z"/>
				<path style="fill:#FFFFFF;stroke:#263238;stroke-linecap:round;stroke-linejoin:round;stroke-miterlimit:10;" d="
					M711.479,347.492c0,0.648-11.323,1.174-25.292,1.174s-25.292-0.526-25.292-1.174c0-0.649,11.323-1.174,25.292-1.174
					S711.479,346.844,711.479,347.492z"/>
				
					<line style="fill:none;stroke:#263238;stroke-linecap:round;stroke-linejoin:round;stroke-miterlimit:10;" x1="715.832" y1="348.661" x2="715.832" y2="355.044"/>
				
					<line style="fill:none;stroke:#263238;stroke-linecap:round;stroke-linejoin:round;stroke-miterlimit:10;" x1="711.129" y1="349.333" x2="711.129" y2="356.052"/>
				
					<line style="fill:none;stroke:#263238;stroke-linecap:round;stroke-linejoin:round;stroke-miterlimit:10;" x1="704.074" y1="349.501" x2="704.074" y2="354.708"/>
				
					<line style="fill:none;stroke:#263238;stroke-linecap:round;stroke-linejoin:round;stroke-miterlimit:10;" x1="694.836" y1="352.861" x2="694.836" y2="357.396"/>
				
					<line style="fill:none;stroke:#263238;stroke-linecap:round;stroke-linejoin:round;stroke-miterlimit:10;" x1="684.925" y1="357.9" x2="684.925" y2="352.189"/>
				
					<line style="fill:none;stroke:#263238;stroke-linecap:round;stroke-linejoin:round;stroke-miterlimit:10;" x1="655.363" y1="348.661" x2="655.363" y2="351.517"/>
				
					<line style="fill:none;stroke:#263238;stroke-linecap:round;stroke-linejoin:round;stroke-miterlimit:10;" x1="659.226" y1="356.724" x2="659.226" y2="353.364"/>
				
					<line style="fill:none;stroke:#263238;stroke-linecap:round;stroke-linejoin:round;stroke-miterlimit:10;" x1="674.511" y1="357.06" x2="674.511" y2="353.029"/>
			</g>
			<g>
				<path style="fill:#FFFFFF;stroke:#263238;stroke-linecap:round;stroke-linejoin:round;stroke-miterlimit:10;" d="
					M655.757,339.482v8.231c0,1.01,14.742,1.829,32.928,1.829c18.185,0,32.928-0.819,32.928-1.829v-8.231H655.757z"/>
				
					<ellipse style="fill:#FFFFFF;stroke:#263238;stroke-linecap:round;stroke-linejoin:round;stroke-miterlimit:10;" cx="688.684" cy="339.482" rx="32.928" ry="1.829"/>
				<path style="fill:#FFFFFF;stroke:#263238;stroke-linecap:round;stroke-linejoin:round;stroke-miterlimit:10;" d="
					M713.976,339.251c0,0.649-11.324,1.174-25.292,1.174c-13.968,0-25.292-0.526-25.292-1.174c0-0.648,11.323-1.174,25.292-1.174
					C702.652,338.077,713.976,338.602,713.976,339.251z"/>
				
					<line style="fill:none;stroke:#263238;stroke-linecap:round;stroke-linejoin:round;stroke-miterlimit:10;" x1="718.329" y1="340.42" x2="718.329" y2="346.803"/>
				
					<line style="fill:none;stroke:#263238;stroke-linecap:round;stroke-linejoin:round;stroke-miterlimit:10;" x1="713.626" y1="341.092" x2="713.626" y2="347.811"/>
				
					<line style="fill:none;stroke:#263238;stroke-linecap:round;stroke-linejoin:round;stroke-miterlimit:10;" x1="706.571" y1="341.26" x2="706.571" y2="346.467"/>
				
					<line style="fill:none;stroke:#263238;stroke-linecap:round;stroke-linejoin:round;stroke-miterlimit:10;" x1="697.333" y1="344.619" x2="697.333" y2="349.155"/>
				
					<line style="fill:none;stroke:#263238;stroke-linecap:round;stroke-linejoin:round;stroke-miterlimit:10;" x1="687.423" y1="349.658" x2="687.423" y2="343.947"/>
				
					<line style="fill:none;stroke:#263238;stroke-linecap:round;stroke-linejoin:round;stroke-miterlimit:10;" x1="657.86" y1="340.42" x2="657.86" y2="343.276"/>
				
					<line style="fill:none;stroke:#263238;stroke-linecap:round;stroke-linejoin:round;stroke-miterlimit:10;" x1="661.723" y1="348.483" x2="661.723" y2="345.123"/>
				
					<line style="fill:none;stroke:#263238;stroke-linecap:round;stroke-linejoin:round;stroke-miterlimit:10;" x1="677.009" y1="348.819" x2="677.009" y2="344.787"/>
			</g>
			<g>
				<path style="fill:#FFFFFF;stroke:#263238;stroke-linecap:round;stroke-linejoin:round;stroke-miterlimit:10;" d="
					M655.757,331.749v8.231c0,1.01,14.742,1.829,32.928,1.829c18.185,0,32.928-0.819,32.928-1.829v-8.231H655.757z"/>
				<path style="fill:#FFFFFF;stroke:#263238;stroke-linecap:round;stroke-linejoin:round;stroke-miterlimit:10;" d="
					M721.612,331.749c0,1.01-14.742,1.829-32.928,1.829c-18.185,0-32.928-0.819-32.928-1.829c0-1.01,14.742-1.829,32.928-1.829
					C706.87,329.919,721.612,330.738,721.612,331.749z"/>
				<path style="fill:#FFFFFF;stroke:#263238;stroke-linecap:round;stroke-linejoin:round;stroke-miterlimit:10;" d="
					M713.976,331.518c0,0.648-11.324,1.174-25.292,1.174c-13.968,0-25.292-0.526-25.292-1.174s11.323-1.174,25.292-1.174
					C702.652,330.343,713.976,330.869,713.976,331.518z"/>
				
					<line style="fill:none;stroke:#263238;stroke-linecap:round;stroke-linejoin:round;stroke-miterlimit:10;" x1="718.329" y1="332.687" x2="718.329" y2="339.07"/>
				
					<line style="fill:none;stroke:#263238;stroke-linecap:round;stroke-linejoin:round;stroke-miterlimit:10;" x1="713.626" y1="333.359" x2="713.626" y2="340.078"/>
				
					<line style="fill:none;stroke:#263238;stroke-linecap:round;stroke-linejoin:round;stroke-miterlimit:10;" x1="706.571" y1="333.527" x2="706.571" y2="338.734"/>
				
					<line style="fill:none;stroke:#263238;stroke-linecap:round;stroke-linejoin:round;stroke-miterlimit:10;" x1="697.333" y1="336.886" x2="697.333" y2="341.421"/>
				
					<line style="fill:none;stroke:#263238;stroke-linecap:round;stroke-linejoin:round;stroke-miterlimit:10;" x1="687.423" y1="341.925" x2="687.423" y2="336.214"/>
				
					<line style="fill:none;stroke:#263238;stroke-linecap:round;stroke-linejoin:round;stroke-miterlimit:10;" x1="657.86" y1="332.687" x2="657.86" y2="335.542"/>
				
					<line style="fill:none;stroke:#263238;stroke-linecap:round;stroke-linejoin:round;stroke-miterlimit:10;" x1="661.723" y1="340.749" x2="661.723" y2="337.39"/>
				
					<line style="fill:none;stroke:#263238;stroke-linecap:round;stroke-linejoin:round;stroke-miterlimit:10;" x1="677.009" y1="341.085" x2="677.009" y2="337.054"/>
			</g>
			<g>
				<path style="fill:#FFFFFF;stroke:#263238;stroke-linecap:round;stroke-linejoin:round;stroke-miterlimit:10;" d="
					M652.593,324.015v8.231c0,1.01,14.742,1.829,32.928,1.829c18.185,0,32.928-0.819,32.928-1.829v-8.231H652.593z"/>
				<path style="fill:#FFFFFF;stroke:#263238;stroke-linecap:round;stroke-linejoin:round;stroke-miterlimit:10;" d="
					M718.448,324.015c0,1.01-14.742,1.829-32.928,1.829c-18.185,0-32.928-0.819-32.928-1.829c0-1.01,14.742-1.829,32.928-1.829
					C703.706,322.186,718.448,323.005,718.448,324.015z"/>
				<path style="fill:#FFFFFF;stroke:#263238;stroke-linecap:round;stroke-linejoin:round;stroke-miterlimit:10;" d="
					M710.812,323.784c0,0.649-11.323,1.174-25.292,1.174c-13.968,0-25.292-0.526-25.292-1.174c0-0.649,11.324-1.174,25.292-1.174
					C699.489,322.61,710.812,323.136,710.812,323.784z"/>
				
					<line style="fill:none;stroke:#263238;stroke-linecap:round;stroke-linejoin:round;stroke-miterlimit:10;" x1="715.166" y1="324.954" x2="715.166" y2="331.336"/>
				
					<line style="fill:none;stroke:#263238;stroke-linecap:round;stroke-linejoin:round;stroke-miterlimit:10;" x1="710.463" y1="325.625" x2="710.463" y2="332.344"/>
				
					<line style="fill:none;stroke:#263238;stroke-linecap:round;stroke-linejoin:round;stroke-miterlimit:10;" x1="703.408" y1="325.793" x2="703.408" y2="331.001"/>
				
					<line style="fill:none;stroke:#263238;stroke-linecap:round;stroke-linejoin:round;stroke-miterlimit:10;" x1="694.17" y1="329.153" x2="694.17" y2="333.688"/>
				
					<line style="fill:none;stroke:#263238;stroke-linecap:round;stroke-linejoin:round;stroke-miterlimit:10;" x1="684.259" y1="334.192" x2="684.259" y2="328.481"/>
				
					<line style="fill:none;stroke:#263238;stroke-linecap:round;stroke-linejoin:round;stroke-miterlimit:10;" x1="654.696" y1="324.954" x2="654.696" y2="327.809"/>
				
					<line style="fill:none;stroke:#263238;stroke-linecap:round;stroke-linejoin:round;stroke-miterlimit:10;" x1="658.56" y1="333.016" x2="658.56" y2="329.657"/>
				
					<line style="fill:none;stroke:#263238;stroke-linecap:round;stroke-linejoin:round;stroke-miterlimit:10;" x1="673.845" y1="333.352" x2="673.845" y2="329.321"/>
			</g>
			<g>
				<path style="fill:#FFFFFF;stroke:#263238;stroke-linecap:round;stroke-linejoin:round;stroke-miterlimit:10;" d="
					M648.726,316.282v8.23c0,1.01,14.742,1.829,32.928,1.829c18.185,0,32.928-0.819,32.928-1.829v-8.23H648.726z"/>
				<path style="fill:#FFFFFF;stroke:#263238;stroke-linecap:round;stroke-linejoin:round;stroke-miterlimit:10;" d="
					M714.582,316.282c0,1.01-14.742,1.829-32.928,1.829c-18.185,0-32.928-0.819-32.928-1.829c0-1.01,14.742-1.829,32.928-1.829
					C699.839,314.453,714.582,315.272,714.582,316.282z"/>
				<path style="fill:#FFFFFF;stroke:#263238;stroke-linecap:round;stroke-linejoin:round;stroke-miterlimit:10;" d="
					M706.946,316.051c0,0.648-11.323,1.174-25.292,1.174c-13.968,0-25.292-0.526-25.292-1.174c0-0.649,11.323-1.174,25.292-1.174
					C695.622,314.877,706.946,315.403,706.946,316.051z"/>
				
					<line style="fill:none;stroke:#263238;stroke-linecap:round;stroke-linejoin:round;stroke-miterlimit:10;" x1="711.299" y1="317.22" x2="711.299" y2="323.603"/>
				
					<line style="fill:none;stroke:#263238;stroke-linecap:round;stroke-linejoin:round;stroke-miterlimit:10;" x1="706.596" y1="317.892" x2="706.596" y2="324.611"/>
				
					<line style="fill:none;stroke:#263238;stroke-linecap:round;stroke-linejoin:round;stroke-miterlimit:10;" x1="699.541" y1="318.06" x2="699.541" y2="323.267"/>
				
					<line style="fill:none;stroke:#263238;stroke-linecap:round;stroke-linejoin:round;stroke-miterlimit:10;" x1="690.303" y1="321.42" x2="690.303" y2="325.955"/>
				
					<line style="fill:none;stroke:#263238;stroke-linecap:round;stroke-linejoin:round;stroke-miterlimit:10;" x1="680.393" y1="326.459" x2="680.393" y2="320.748"/>
				
					<line style="fill:none;stroke:#263238;stroke-linecap:round;stroke-linejoin:round;stroke-miterlimit:10;" x1="650.83" y1="317.22" x2="650.83" y2="320.076"/>
				
					<line style="fill:none;stroke:#263238;stroke-linecap:round;stroke-linejoin:round;stroke-miterlimit:10;" x1="654.693" y1="325.283" x2="654.693" y2="321.923"/>
				
					<line style="fill:none;stroke:#263238;stroke-linecap:round;stroke-linejoin:round;stroke-miterlimit:10;" x1="669.978" y1="325.619" x2="669.978" y2="321.588"/>
			</g>
		</g>
		<g>
			<g>
				<path style="fill:#FFFFFF;stroke:#263238;stroke-linecap:round;stroke-linejoin:round;stroke-miterlimit:10;" d="
					M594.935,446.969v8.231c0,1.01,14.742,1.829,32.928,1.829c18.185,0,32.928-0.819,32.928-1.829v-8.231H594.935z"/>
				
					<ellipse style="fill:#FFFFFF;stroke:#263238;stroke-linecap:round;stroke-linejoin:round;stroke-miterlimit:10;" cx="627.863" cy="446.969" rx="32.928" ry="1.829"/>
				<path style="fill:#FFFFFF;stroke:#263238;stroke-linecap:round;stroke-linejoin:round;stroke-miterlimit:10;" d="
					M653.155,446.738c0,0.648-11.323,1.174-25.292,1.174c-13.968,0-25.292-0.526-25.292-1.174s11.323-1.174,25.292-1.174
					C641.831,445.564,653.155,446.089,653.155,446.738z"/>
				
					<line style="fill:none;stroke:#263238;stroke-linecap:round;stroke-linejoin:round;stroke-miterlimit:10;" x1="657.508" y1="447.907" x2="657.508" y2="454.29"/>
				
					<line style="fill:none;stroke:#263238;stroke-linecap:round;stroke-linejoin:round;stroke-miterlimit:10;" x1="652.805" y1="448.579" x2="652.805" y2="455.298"/>
				
					<line style="fill:none;stroke:#263238;stroke-linecap:round;stroke-linejoin:round;stroke-miterlimit:10;" x1="645.75" y1="448.747" x2="645.75" y2="453.954"/>
				
					<line style="fill:none;stroke:#263238;stroke-linecap:round;stroke-linejoin:round;stroke-miterlimit:10;" x1="636.512" y1="452.106" x2="636.512" y2="456.641"/>
				
					<line style="fill:none;stroke:#263238;stroke-linecap:round;stroke-linejoin:round;stroke-miterlimit:10;" x1="626.602" y1="457.145" x2="626.602" y2="451.434"/>
				
					<line style="fill:none;stroke:#263238;stroke-linecap:round;stroke-linejoin:round;stroke-miterlimit:10;" x1="597.039" y1="447.907" x2="597.039" y2="450.762"/>
				
					<line style="fill:none;stroke:#263238;stroke-linecap:round;stroke-linejoin:round;stroke-miterlimit:10;" x1="600.902" y1="455.969" x2="600.902" y2="452.61"/>
				
					<line style="fill:none;stroke:#263238;stroke-linecap:round;stroke-linejoin:round;stroke-miterlimit:10;" x1="616.187" y1="456.305" x2="616.187" y2="452.274"/>
			</g>
			<g>
				<path style="fill:#FFFFFF;stroke:#263238;stroke-linecap:round;stroke-linejoin:round;stroke-miterlimit:10;" d="
					M594.408,438.523v8.231c0,1.01,14.742,1.829,32.928,1.829c18.185,0,32.928-0.819,32.928-1.829v-8.231H594.408z"/>
				
					<ellipse style="fill:#FFFFFF;stroke:#263238;stroke-linecap:round;stroke-linejoin:round;stroke-miterlimit:10;" cx="627.335" cy="438.523" rx="32.928" ry="1.829"/>
				<path style="fill:#FFFFFF;stroke:#263238;stroke-linecap:round;stroke-linejoin:round;stroke-miterlimit:10;" d="
					M652.627,438.292c0,0.648-11.324,1.174-25.292,1.174c-13.968,0-25.292-0.526-25.292-1.174s11.323-1.174,25.292-1.174
					C641.303,437.118,652.627,437.643,652.627,438.292z"/>
				
					<line style="fill:none;stroke:#263238;stroke-linecap:round;stroke-linejoin:round;stroke-miterlimit:10;" x1="656.98" y1="439.461" x2="656.98" y2="445.844"/>
				
					<line style="fill:none;stroke:#263238;stroke-linecap:round;stroke-linejoin:round;stroke-miterlimit:10;" x1="652.277" y1="440.133" x2="652.277" y2="446.852"/>
				
					<line style="fill:none;stroke:#263238;stroke-linecap:round;stroke-linejoin:round;stroke-miterlimit:10;" x1="645.223" y1="440.301" x2="645.223" y2="445.508"/>
				
					<line style="fill:none;stroke:#263238;stroke-linecap:round;stroke-linejoin:round;stroke-miterlimit:10;" x1="635.984" y1="443.66" x2="635.984" y2="448.195"/>
				
					<line style="fill:none;stroke:#263238;stroke-linecap:round;stroke-linejoin:round;stroke-miterlimit:10;" x1="626.074" y1="448.699" x2="626.074" y2="442.988"/>
				
					<line style="fill:none;stroke:#263238;stroke-linecap:round;stroke-linejoin:round;stroke-miterlimit:10;" x1="596.511" y1="439.461" x2="596.511" y2="442.316"/>
				
					<line style="fill:none;stroke:#263238;stroke-linecap:round;stroke-linejoin:round;stroke-miterlimit:10;" x1="600.374" y1="447.523" x2="600.374" y2="444.164"/>
				
					<line style="fill:none;stroke:#263238;stroke-linecap:round;stroke-linejoin:round;stroke-miterlimit:10;" x1="615.66" y1="447.859" x2="615.66" y2="443.828"/>
			</g>
			<g>
				<path style="fill:#FFFFFF;stroke:#263238;stroke-linecap:round;stroke-linejoin:round;stroke-miterlimit:10;" d="
					M594.408,429.813v8.231c0,1.01,14.742,1.829,32.928,1.829c18.185,0,32.928-0.819,32.928-1.829v-8.231H594.408z"/>
				
					<ellipse style="fill:#FFFFFF;stroke:#263238;stroke-linecap:round;stroke-linejoin:round;stroke-miterlimit:10;" cx="627.335" cy="429.813" rx="32.928" ry="1.829"/>
				<path style="fill:#FFFFFF;stroke:#263238;stroke-linecap:round;stroke-linejoin:round;stroke-miterlimit:10;" d="
					M652.627,429.582c0,0.648-11.324,1.174-25.292,1.174c-13.968,0-25.292-0.526-25.292-1.174s11.323-1.174,25.292-1.174
					C641.303,428.408,652.627,428.934,652.627,429.582z"/>
				
					<line style="fill:none;stroke:#263238;stroke-linecap:round;stroke-linejoin:round;stroke-miterlimit:10;" x1="656.98" y1="430.751" x2="656.98" y2="437.134"/>
				
					<line style="fill:none;stroke:#263238;stroke-linecap:round;stroke-linejoin:round;stroke-miterlimit:10;" x1="652.277" y1="431.423" x2="652.277" y2="438.142"/>
				
					<line style="fill:none;stroke:#263238;stroke-linecap:round;stroke-linejoin:round;stroke-miterlimit:10;" x1="645.223" y1="431.591" x2="645.223" y2="436.798"/>
				
					<line style="fill:none;stroke:#263238;stroke-linecap:round;stroke-linejoin:round;stroke-miterlimit:10;" x1="635.984" y1="434.95" x2="635.984" y2="439.486"/>
				
					<line style="fill:none;stroke:#263238;stroke-linecap:round;stroke-linejoin:round;stroke-miterlimit:10;" x1="626.074" y1="439.99" x2="626.074" y2="434.279"/>
				
					<line style="fill:none;stroke:#263238;stroke-linecap:round;stroke-linejoin:round;stroke-miterlimit:10;" x1="596.511" y1="430.751" x2="596.511" y2="433.607"/>
				
					<line style="fill:none;stroke:#263238;stroke-linecap:round;stroke-linejoin:round;stroke-miterlimit:10;" x1="600.374" y1="438.814" x2="600.374" y2="435.454"/>
				
					<line style="fill:none;stroke:#263238;stroke-linecap:round;stroke-linejoin:round;stroke-miterlimit:10;" x1="615.66" y1="439.15" x2="615.66" y2="435.118"/>
			</g>
			<g>
				<path style="fill:#FFFFFF;stroke:#263238;stroke-linecap:round;stroke-linejoin:round;stroke-miterlimit:10;" d="
					M596.441,421.362v8.231c0,1.01,14.742,1.829,32.928,1.829c18.186,0,32.928-0.819,32.928-1.829v-8.231H596.441z"/>
				<path style="fill:#FFFFFF;stroke:#263238;stroke-linecap:round;stroke-linejoin:round;stroke-miterlimit:10;" d="
					M662.296,421.362c0,1.01-14.742,1.829-32.928,1.829c-18.185,0-32.928-0.819-32.928-1.829c0-1.01,14.742-1.829,32.928-1.829
					C647.554,419.533,662.296,420.352,662.296,421.362z"/>
				
					<ellipse style="fill:#FFFFFF;stroke:#263238;stroke-linecap:round;stroke-linejoin:round;stroke-miterlimit:10;" cx="629.368" cy="421.132" rx="25.292" ry="1.174"/>
				
					<line style="fill:none;stroke:#263238;stroke-linecap:round;stroke-linejoin:round;stroke-miterlimit:10;" x1="659.014" y1="422.301" x2="659.014" y2="428.683"/>
				
					<line style="fill:none;stroke:#263238;stroke-linecap:round;stroke-linejoin:round;stroke-miterlimit:10;" x1="654.31" y1="422.972" x2="654.31" y2="429.691"/>
				
					<line style="fill:none;stroke:#263238;stroke-linecap:round;stroke-linejoin:round;stroke-miterlimit:10;" x1="647.256" y1="423.14" x2="647.256" y2="428.348"/>
				
					<line style="fill:none;stroke:#263238;stroke-linecap:round;stroke-linejoin:round;stroke-miterlimit:10;" x1="638.017" y1="426.5" x2="638.017" y2="431.035"/>
				
					<line style="fill:none;stroke:#263238;stroke-linecap:round;stroke-linejoin:round;stroke-miterlimit:10;" x1="628.107" y1="431.539" x2="628.107" y2="425.828"/>
				
					<line style="fill:none;stroke:#263238;stroke-linecap:round;stroke-linejoin:round;stroke-miterlimit:10;" x1="598.544" y1="422.301" x2="598.544" y2="425.156"/>
				
					<line style="fill:none;stroke:#263238;stroke-linecap:round;stroke-linejoin:round;stroke-miterlimit:10;" x1="602.407" y1="430.363" x2="602.407" y2="427.004"/>
				
					<line style="fill:none;stroke:#263238;stroke-linecap:round;stroke-linejoin:round;stroke-miterlimit:10;" x1="617.693" y1="430.699" x2="617.693" y2="426.668"/>
			</g>
			<g>
				<path style="fill:#FFFFFF;stroke:#263238;stroke-linecap:round;stroke-linejoin:round;stroke-miterlimit:10;" d="
					M597.583,412.912v8.231c0,1.01,14.742,1.829,32.928,1.829c18.185,0,32.928-0.819,32.928-1.829v-8.231H597.583z"/>
				
					<ellipse style="fill:#FFFFFF;stroke:#263238;stroke-linecap:round;stroke-linejoin:round;stroke-miterlimit:10;" cx="630.51" cy="412.912" rx="32.928" ry="1.829"/>
				<path style="fill:#FFFFFF;stroke:#263238;stroke-linecap:round;stroke-linejoin:round;stroke-miterlimit:10;" d="
					M655.802,412.681c0,0.648-11.323,1.174-25.292,1.174c-13.968,0-25.292-0.526-25.292-1.174s11.324-1.174,25.292-1.174
					C644.479,411.507,655.802,412.032,655.802,412.681z"/>
				
					<line style="fill:none;stroke:#263238;stroke-linecap:round;stroke-linejoin:round;stroke-miterlimit:10;" x1="660.156" y1="413.85" x2="660.156" y2="420.233"/>
				
					<line style="fill:none;stroke:#263238;stroke-linecap:round;stroke-linejoin:round;stroke-miterlimit:10;" x1="655.453" y1="414.522" x2="655.453" y2="421.241"/>
				
					<line style="fill:none;stroke:#263238;stroke-linecap:round;stroke-linejoin:round;stroke-miterlimit:10;" x1="648.398" y1="414.69" x2="648.398" y2="419.897"/>
				
					<line style="fill:none;stroke:#263238;stroke-linecap:round;stroke-linejoin:round;stroke-miterlimit:10;" x1="639.159" y1="418.049" x2="639.159" y2="422.584"/>
				
					<line style="fill:none;stroke:#263238;stroke-linecap:round;stroke-linejoin:round;stroke-miterlimit:10;" x1="629.249" y1="423.088" x2="629.249" y2="417.377"/>
				
					<line style="fill:none;stroke:#263238;stroke-linecap:round;stroke-linejoin:round;stroke-miterlimit:10;" x1="599.686" y1="413.85" x2="599.686" y2="416.706"/>
				
					<line style="fill:none;stroke:#263238;stroke-linecap:round;stroke-linejoin:round;stroke-miterlimit:10;" x1="603.549" y1="421.913" x2="603.549" y2="418.553"/>
				
					<line style="fill:none;stroke:#263238;stroke-linecap:round;stroke-linejoin:round;stroke-miterlimit:10;" x1="618.835" y1="422.249" x2="618.835" y2="418.217"/>
			</g>
			<g>
				<path style="fill:#FFFFFF;stroke:#263238;stroke-linecap:round;stroke-linejoin:round;stroke-miterlimit:10;" d="
					M596.441,404.461v8.231c0,1.01,14.742,1.829,32.928,1.829c18.186,0,32.928-0.819,32.928-1.829v-8.231H596.441z"/>
				
					<ellipse style="fill:#FFFFFF;stroke:#263238;stroke-linecap:round;stroke-linejoin:round;stroke-miterlimit:10;" cx="629.368" cy="404.461" rx="32.928" ry="1.829"/>
				
					<ellipse style="fill:#FFFFFF;stroke:#263238;stroke-linecap:round;stroke-linejoin:round;stroke-miterlimit:10;" cx="629.368" cy="404.23" rx="25.292" ry="1.174"/>
				
					<line style="fill:none;stroke:#263238;stroke-linecap:round;stroke-linejoin:round;stroke-miterlimit:10;" x1="659.014" y1="405.399" x2="659.014" y2="411.782"/>
				
					<line style="fill:none;stroke:#263238;stroke-linecap:round;stroke-linejoin:round;stroke-miterlimit:10;" x1="654.31" y1="406.071" x2="654.31" y2="412.79"/>
				
					<line style="fill:none;stroke:#263238;stroke-linecap:round;stroke-linejoin:round;stroke-miterlimit:10;" x1="647.256" y1="406.239" x2="647.256" y2="411.446"/>
				
					<line style="fill:none;stroke:#263238;stroke-linecap:round;stroke-linejoin:round;stroke-miterlimit:10;" x1="638.017" y1="409.599" x2="638.017" y2="414.134"/>
				
					<line style="fill:none;stroke:#263238;stroke-linecap:round;stroke-linejoin:round;stroke-miterlimit:10;" x1="628.107" y1="414.638" x2="628.107" y2="408.927"/>
				
					<line style="fill:none;stroke:#263238;stroke-linecap:round;stroke-linejoin:round;stroke-miterlimit:10;" x1="598.544" y1="405.399" x2="598.544" y2="408.255"/>
				
					<line style="fill:none;stroke:#263238;stroke-linecap:round;stroke-linejoin:round;stroke-miterlimit:10;" x1="602.407" y1="413.462" x2="602.407" y2="410.103"/>
				
					<line style="fill:none;stroke:#263238;stroke-linecap:round;stroke-linejoin:round;stroke-miterlimit:10;" x1="617.693" y1="413.798" x2="617.693" y2="409.767"/>
			</g>
			<g>
				<path style="fill:#FFFFFF;stroke:#263238;stroke-linecap:round;stroke-linejoin:round;stroke-miterlimit:10;" d="
					M598.268,396.011v8.231c0,1.01,14.742,1.829,32.928,1.829c18.185,0,32.928-0.819,32.928-1.829v-8.231H598.268z"/>
				
					<ellipse style="fill:#FFFFFF;stroke:#263238;stroke-linecap:round;stroke-linejoin:round;stroke-miterlimit:10;" cx="631.196" cy="396.011" rx="32.928" ry="1.829"/>
				<path style="fill:#FFFFFF;stroke:#263238;stroke-linecap:round;stroke-linejoin:round;stroke-miterlimit:10;" d="
					M656.487,395.78c0,0.649-11.324,1.174-25.292,1.174c-13.968,0-25.292-0.526-25.292-1.174c0-0.648,11.324-1.174,25.292-1.174
					C645.164,394.605,656.487,395.131,656.487,395.78z"/>
				
					<line style="fill:none;stroke:#263238;stroke-linecap:round;stroke-linejoin:round;stroke-miterlimit:10;" x1="660.841" y1="396.949" x2="660.841" y2="403.332"/>
				
					<line style="fill:none;stroke:#263238;stroke-linecap:round;stroke-linejoin:round;stroke-miterlimit:10;" x1="656.138" y1="397.621" x2="656.138" y2="404.34"/>
				
					<line style="fill:none;stroke:#263238;stroke-linecap:round;stroke-linejoin:round;stroke-miterlimit:10;" x1="649.083" y1="397.789" x2="649.083" y2="402.996"/>
				
					<line style="fill:none;stroke:#263238;stroke-linecap:round;stroke-linejoin:round;stroke-miterlimit:10;" x1="639.844" y1="401.148" x2="639.844" y2="405.683"/>
				
					<line style="fill:none;stroke:#263238;stroke-linecap:round;stroke-linejoin:round;stroke-miterlimit:10;" x1="629.934" y1="406.187" x2="629.934" y2="400.476"/>
				
					<line style="fill:none;stroke:#263238;stroke-linecap:round;stroke-linejoin:round;stroke-miterlimit:10;" x1="600.371" y1="396.949" x2="600.371" y2="399.804"/>
				
					<line style="fill:none;stroke:#263238;stroke-linecap:round;stroke-linejoin:round;stroke-miterlimit:10;" x1="604.235" y1="405.012" x2="604.235" y2="401.652"/>
				
					<line style="fill:none;stroke:#263238;stroke-linecap:round;stroke-linejoin:round;stroke-miterlimit:10;" x1="619.52" y1="405.347" x2="619.52" y2="401.316"/>
			</g>
			<g>
				<path style="fill:#FFFFFF;stroke:#263238;stroke-linecap:round;stroke-linejoin:round;stroke-miterlimit:10;" d="
					M593.928,387.56v8.23c0,1.01,14.742,1.829,32.928,1.829c18.185,0,32.928-0.819,32.928-1.829v-8.23H593.928z"/>
				<path style="fill:#FFFFFF;stroke:#263238;stroke-linecap:round;stroke-linejoin:round;stroke-miterlimit:10;" d="
					M659.784,387.56c0,1.01-14.742,1.829-32.928,1.829c-18.185,0-32.928-0.819-32.928-1.829c0-1.01,14.742-1.829,32.928-1.829
					C645.042,385.731,659.784,386.55,659.784,387.56z"/>
				<path style="fill:#FFFFFF;stroke:#263238;stroke-linecap:round;stroke-linejoin:round;stroke-miterlimit:10;" d="
					M652.148,387.329c0,0.649-11.323,1.174-25.292,1.174c-13.968,0-25.292-0.526-25.292-1.174c0-0.648,11.324-1.174,25.292-1.174
					C640.824,386.155,652.148,386.681,652.148,387.329z"/>
				
					<line style="fill:none;stroke:#263238;stroke-linecap:round;stroke-linejoin:round;stroke-miterlimit:10;" x1="656.501" y1="388.498" x2="656.501" y2="394.881"/>
				
					<line style="fill:none;stroke:#263238;stroke-linecap:round;stroke-linejoin:round;stroke-miterlimit:10;" x1="651.798" y1="389.17" x2="651.798" y2="395.889"/>
				
					<line style="fill:none;stroke:#263238;stroke-linecap:round;stroke-linejoin:round;stroke-miterlimit:10;" x1="644.743" y1="389.338" x2="644.743" y2="394.545"/>
				
					<line style="fill:none;stroke:#263238;stroke-linecap:round;stroke-linejoin:round;stroke-miterlimit:10;" x1="635.505" y1="392.698" x2="635.505" y2="397.233"/>
				
					<line style="fill:none;stroke:#263238;stroke-linecap:round;stroke-linejoin:round;stroke-miterlimit:10;" x1="625.595" y1="397.737" x2="625.595" y2="392.026"/>
				
					<line style="fill:none;stroke:#263238;stroke-linecap:round;stroke-linejoin:round;stroke-miterlimit:10;" x1="596.032" y1="388.498" x2="596.032" y2="391.354"/>
				
					<line style="fill:none;stroke:#263238;stroke-linecap:round;stroke-linejoin:round;stroke-miterlimit:10;" x1="599.895" y1="396.561" x2="599.895" y2="393.202"/>
				
					<line style="fill:none;stroke:#263238;stroke-linecap:round;stroke-linejoin:round;stroke-miterlimit:10;" x1="615.18" y1="396.897" x2="615.18" y2="392.866"/>
			</g>
		</g>
		<g>
			
				<ellipse transform="matrix(0.1584 -0.9874 0.9874 0.1584 141.8563 1004.6709)" style="fill:#263238;stroke:#263238;stroke-linecap:round;stroke-linejoin:round;stroke-miterlimit:10;" cx="660.276" cy="419.121" rx="36.043" ry="36.043"/>
			
				<ellipse transform="matrix(0.7071 -0.7071 0.7071 0.7071 -103.5894 588.1559)" style="fill:#FFFFFF;stroke:#263238;stroke-linecap:round;stroke-linejoin:round;stroke-miterlimit:10;" cx="658.172" cy="419.121" rx="36.043" ry="36.043"/>
			
				<circle style="fill:#FFFFFF;stroke:#263238;stroke-linecap:round;stroke-linejoin:round;stroke-miterlimit:10;" cx="658.172" cy="419.121" r="31.257"/>
			<g>
				<path style="fill:#263238;stroke:#263238;stroke-linecap:round;stroke-linejoin:round;stroke-miterlimit:10;" d="
					M667.141,444.43l-1.917-4.927c-3.483,1.163-6.475,1.058-8.978-0.318c-2.503-1.376-4.648-4.161-6.433-8.357l7.17-4.108
					c0.704,1.713,1.396,3.048,2.075,4.006c0.679,0.959,1.365,1.571,2.06,1.835c0.695,0.265,1.408,0.255,2.138-0.029
					c0.929-0.361,1.412-0.912,1.449-1.653c0.037-0.739-0.08-1.458-0.351-2.155c-0.646-1.659-1.582-2.909-2.807-3.75
					c-1.226-0.841-2.744-1.578-4.556-2.211l-4.715-1.661c-1.344-0.509-2.607-1.077-3.788-1.707c-1.181-0.629-2.262-1.47-3.244-2.52
					c-0.982-1.051-1.809-2.438-2.481-4.164c-1.227-3.152-1.284-5.976-0.173-8.472c1.111-2.495,3.148-4.453,6.111-5.873l-1.84-4.729
					l2.538-0.988l1.821,4.679c1.963-0.649,3.677-0.809,5.143-0.482c1.465,0.328,2.71,0.952,3.736,1.87
					c1.025,0.919,1.895,1.975,2.608,3.168c0.713,1.194,1.299,2.332,1.758,3.414l-7.347,3.948c-0.498-1.182-0.98-2.198-1.444-3.049
					c-0.466-0.85-0.965-1.448-1.501-1.794c-0.536-0.345-1.179-0.353-1.929-0.023c-0.83,0.323-1.308,0.91-1.435,1.762
					c-0.127,0.851-0.055,1.626,0.216,2.323c0.62,1.593,1.526,2.721,2.721,3.383c1.194,0.663,2.44,1.238,3.738,1.726l4.527,1.62
					c1.528,0.59,2.991,1.281,4.389,2.075c1.397,0.794,2.655,1.794,3.775,3.001c1.119,1.208,2.04,2.741,2.763,4.599
					c0.684,1.759,0.945,3.511,0.784,5.254c-0.162,1.744-0.746,3.337-1.751,4.779c-1.005,1.442-2.415,2.63-4.229,3.565l1.937,4.977
					L667.141,444.43z"/>
			</g>
			<g>
				<path style="fill:#FFFFFF;stroke:#263238;stroke-linecap:round;stroke-linejoin:round;stroke-miterlimit:10;" d="
					M666.226,444.43l-1.917-4.927c-3.483,1.163-6.475,1.058-8.978-0.318c-2.503-1.376-4.648-4.161-6.433-8.357l7.17-4.108
					c0.704,1.713,1.396,3.048,2.075,4.006c0.679,0.959,1.365,1.571,2.06,1.835c0.695,0.265,1.408,0.255,2.138-0.029
					c0.929-0.361,1.412-0.912,1.449-1.653c0.037-0.739-0.08-1.458-0.351-2.155c-0.646-1.659-1.582-2.909-2.806-3.75
					c-1.226-0.841-2.744-1.578-4.557-2.211l-4.715-1.661c-1.344-0.509-2.607-1.077-3.788-1.707c-1.181-0.629-2.262-1.47-3.244-2.52
					c-0.982-1.051-1.809-2.438-2.481-4.164c-1.227-3.152-1.284-5.976-0.173-8.472c1.111-2.495,3.148-4.453,6.111-5.873l-1.84-4.729
					l2.538-0.988l1.821,4.679c1.963-0.649,3.677-0.809,5.143-0.482c1.465,0.328,2.71,0.952,3.736,1.87
					c1.025,0.919,1.895,1.975,2.608,3.168c0.713,1.194,1.299,2.332,1.758,3.414l-7.347,3.948c-0.498-1.182-0.98-2.198-1.444-3.049
					c-0.466-0.85-0.965-1.448-1.501-1.794c-0.536-0.345-1.179-0.353-1.929-0.023c-0.83,0.323-1.308,0.91-1.435,1.762
					c-0.127,0.851-0.055,1.626,0.216,2.323c0.62,1.593,1.526,2.721,2.721,3.383c1.194,0.663,2.44,1.238,3.738,1.726l4.527,1.62
					c1.528,0.59,2.991,1.281,4.389,2.075c1.397,0.794,2.655,1.794,3.775,3.001c1.119,1.208,2.04,2.741,2.763,4.599
					c0.684,1.759,0.945,3.511,0.784,5.254c-0.162,1.744-0.746,3.337-1.751,4.779c-1.005,1.442-2.415,2.63-4.229,3.565l1.937,4.977
					L666.226,444.43z"/>
			</g>
		</g>
	</g>
</g>
<g id="Money_1">
	<g>
		<g>
			
				<rect x="311.891" y="92.58" transform="matrix(0.7706 -0.6373 0.6373 0.7706 -37.8668 279.687)" style="fill:#92E3A9;stroke:#263238;stroke-miterlimit:10;" width="115.359" height="199.726"/>
			<path style="fill:#FFFFFF;stroke:#263238;stroke-miterlimit:10;" d="M359.946,107.864c-5.923,4.899-14.696,4.068-19.595-1.855
				c-0.373-0.45-0.701-0.921-1.007-1.402l-51.041,42.214c0.414,0.391,0.815,0.802,1.188,1.252
				c4.899,5.923,4.069,14.696-1.855,19.595c-0.224,0.185-0.459,0.346-0.691,0.515l90.952,109.969
				c0.21-0.196,0.412-0.397,0.636-0.582c5.923-4.899,14.696-4.069,19.595,1.854c0.372,0.45,0.701,0.921,1.007,1.402l51.041-42.214
				c-0.414-0.391-0.815-0.802-1.188-1.252c-4.899-5.923-4.069-14.696,1.854-19.595c0.45-0.372,0.921-0.7,1.402-1.007
				l-91.046-110.083C360.806,107.09,360.396,107.491,359.946,107.864z M384.11,210.023c-9.709,8.03-24.09,6.669-32.12-3.04
				c-8.03-9.709-6.669-24.09,3.04-32.12c9.709-8.03,24.09-6.669,32.12,3.04C395.18,187.612,393.819,201.993,384.11,210.023z"/>
		</g>
		<g>
			
				<rect x="316.626" y="84.958" transform="matrix(0.8451 -0.5345 0.5345 0.8451 -40.8309 228.6988)" style="fill:#92E3A9;stroke:#263238;stroke-miterlimit:10;" width="115.359" height="199.726"/>
			<path style="fill:#FFFFFF;stroke:#263238;stroke-miterlimit:10;" d="M375.477,99.704c-6.496,4.108-15.093,2.173-19.202-4.323
				c-0.313-0.494-0.578-1.003-0.821-1.518l-55.979,35.406c0.361,0.44,0.707,0.898,1.02,1.392c4.109,6.497,2.173,15.094-4.323,19.202
				c-0.246,0.155-0.5,0.285-0.751,0.423l76.282,120.609c0.233-0.168,0.458-0.342,0.704-0.497c6.496-4.109,15.093-2.173,19.202,4.323
				c0.312,0.494,0.578,1.003,0.821,1.518l55.979-35.406c-0.361-0.44-0.707-0.899-1.02-1.392c-4.109-6.496-2.173-15.093,4.323-19.202
				c0.494-0.312,1.003-0.578,1.518-0.821L376.869,98.685C376.428,99.046,375.97,99.392,375.477,99.704z M386.5,204.102
				c-10.648,6.735-24.74,3.562-31.475-7.086c-6.735-10.648-3.562-24.74,7.086-31.475c10.648-6.735,24.741-3.562,31.475,7.086
				C400.321,183.275,397.148,197.367,386.5,204.102z"/>
		</g>
		<g>
			
				<rect x="330.597" y="82.517" transform="matrix(0.9185 -0.3954 0.3954 0.9185 -40.4721 168.3916)" style="fill:#92E3A9;stroke:#263238;stroke-miterlimit:10;" width="115.359" height="199.726"/>
			<path style="fill:#FFFFFF;stroke:#263238;stroke-miterlimit:10;" d="M402.779,98.499c-7.06,3.039-15.247-0.22-18.286-7.28
				c-0.231-0.537-0.414-1.081-0.573-1.628l-60.838,26.191c0.288,0.492,0.557,0.998,0.789,1.535c3.039,7.06-0.22,15.248-7.28,18.287
				c-0.267,0.115-0.538,0.203-0.808,0.3l56.428,131.077c0.256-0.129,0.506-0.265,0.774-0.38c7.06-3.039,15.247,0.22,18.287,7.28
				c0.231,0.536,0.414,1.081,0.573,1.628l60.838-26.191c-0.288-0.492-0.558-0.998-0.789-1.535c-3.039-7.06,0.22-15.247,7.28-18.287
				c0.537-0.231,1.081-0.413,1.628-0.573L404.314,97.711C403.822,97.998,403.315,98.268,402.779,98.499z M397.297,203.334
				c-11.573,4.982-24.993-0.361-29.975-11.934c-4.982-11.573,0.361-24.993,11.934-29.975c11.573-4.982,24.993,0.361,29.975,11.934
				C414.212,184.932,408.869,198.352,397.297,203.334z"/>
		</g>
		<g>
			
				<rect x="352.305" y="83.09" transform="matrix(0.9864 -0.1644 0.1644 0.9864 -24.4946 69.8733)" style="fill:#92E3A9;stroke:#263238;stroke-miterlimit:10;" width="115.359" height="199.726"/>
			<path style="fill:#FFFFFF;stroke:#263238;stroke-miterlimit:10;" d="M444.12,104.972c-7.582,1.263-14.752-3.859-16.016-11.441
				c-0.096-0.576-0.143-1.148-0.167-1.718L362.601,102.7c0.162,0.546,0.303,1.103,0.399,1.679
				c1.263,7.582-3.859,14.753-11.441,16.016c-0.287,0.048-0.571,0.069-0.856,0.098l23.455,140.766
				c0.28-0.064,0.555-0.137,0.842-0.184c7.582-1.264,14.753,3.859,16.016,11.441c0.096,0.576,0.143,1.148,0.167,1.717l65.335-10.887
				c-0.162-0.546-0.303-1.103-0.399-1.679c-1.263-7.582,3.859-14.752,11.441-16.016c0.576-0.096,1.148-0.143,1.718-0.167
				l-23.48-140.912C445.252,104.735,444.696,104.876,444.12,104.972z M413.734,205.456c-12.428,2.071-24.182-6.325-26.253-18.754
				c-2.071-12.428,6.325-24.182,18.754-26.253c12.428-2.071,24.182,6.326,26.253,18.754
				C434.559,191.632,426.162,203.386,413.734,205.456z"/>
		</g>
		<g>
			
				<rect x="378.116" y="91" transform="matrix(0.9908 0.135 -0.135 0.9908 29.7505 -57.0761)" style="fill:#92E3A9;stroke:#263238;stroke-miterlimit:10;" width="115.359" height="199.726"/>
			<path style="fill:#FFFFFF;stroke:#263238;stroke-miterlimit:10;" d="M491.483,126.48c-7.616-1.038-12.949-8.053-11.911-15.669
				c0.079-0.579,0.203-1.139,0.349-1.69l-65.63-8.94c-0.007,0.57-0.037,1.143-0.116,1.722c-1.038,7.616-8.053,12.949-15.669,11.912
				c-0.288-0.039-0.566-0.103-0.847-0.159l-19.262,141.401c0.286,0.021,0.571,0.034,0.859,0.073
				c7.616,1.037,12.949,8.052,11.912,15.669c-0.079,0.579-0.203,1.139-0.349,1.69l65.63,8.94c0.007-0.57,0.037-1.143,0.116-1.722
				c1.037-7.616,8.053-12.949,15.669-11.912c0.579,0.079,1.139,0.203,1.69,0.349l19.282-141.548
				C492.635,126.589,492.062,126.559,491.483,126.48z M432.716,213.468c-12.484-1.701-21.226-13.2-19.525-25.684
				c1.701-12.484,13.2-21.226,25.684-19.526c12.484,1.701,21.226,13.2,19.526,25.684C456.699,206.426,445.2,215.168,432.716,213.468
				z"/>
		</g>
	</g>
</g>
<g id="Wifi">
	<g>
		<path style="fill:#263238;" d="M578.698,52.744c21.892,0.34,40.16,8.644,54.546,25.255c1.964,2.268,1.724,5.415-0.468,7.298
			c-2.09,1.795-5.198,1.567-7.119-0.664c-5.23-6.072-11.293-11.1-18.397-14.828c-22.275-11.69-48.919-8.824-68.109,7.412
			c-2.645,2.238-4.998,4.833-7.382,7.36c-2.065,2.19-5.112,2.54-7.295,0.659c-2.156-1.857-2.319-5.021-0.353-7.3
			c12.056-13.973,27.225-22.233,45.508-24.758c1.432-0.198,2.876-0.352,4.319-0.417C575.529,52.689,577.115,52.744,578.698,52.744z"
			/>
		<path style="fill:#263238;" d="M580.507,73.043c13.838,0.358,26.846,6.269,37.083,18.099c2.019,2.333,1.782,5.344-0.459,7.269
			c-2.133,1.833-5.222,1.586-7.193-0.695c-5.341-6.183-11.815-10.718-19.708-12.849c-16.085-4.343-29.992-0.382-41.639,11.524
			c-0.433,0.443-0.833,0.918-1.245,1.382c-1.922,2.165-5.031,2.455-7.133,0.665c-2.216-1.888-2.445-5.007-0.508-7.291
			c4.561-5.377,9.992-9.653,16.311-12.789C563.177,74.804,570.767,73.076,580.507,73.043z"/>
		<path style="fill:#263238;" d="M603.273,107.662c-0.002,2.107-1.276,3.971-3.234,4.734c-1.972,0.769-4.162,0.257-5.639-1.415
			c-2.176-2.464-4.685-4.456-7.728-5.746c-8.307-3.52-17.472-1.333-23.65,5.645c-1.466,1.655-3.294,2.255-5.407,1.614
			c-2.033-0.616-3.206-2.081-3.52-4.178c-0.221-1.477,0.224-2.79,1.175-3.936c10.581-12.758,30.046-14.564,42.775-3.929
			c1.446,1.209,2.806,2.561,4.002,4.014c0.704,0.854,1.008,2.038,1.491,3.074C603.45,107.58,603.361,107.621,603.273,107.662z"/>
		<path style="fill:#263238;" d="M578.681,134.24c-5.676,0.003-10.184-4.501-10.181-10.171c0.003-5.581,4.538-10.117,10.136-10.139
			c5.623-0.022,10.186,4.553,10.172,10.198C588.794,129.748,584.298,134.237,578.681,134.24z"/>
	</g>
</g>
<g id="Device">
	<g>
		<path style="fill:#263238;stroke:#263238;stroke-linecap:round;stroke-linejoin:round;stroke-miterlimit:10;" d="M486.144,456.608
			H91.797l-55.214-266.75c-0.733-3.542,1.544-6.413,5.085-6.413H423.19c3.542,0,7.007,2.871,7.74,6.413L486.144,456.608z"/>
		<path style="fill:#8A8A8A;stroke:#263238;stroke-miterlimit:10;" d="M490.299,456.608H95.951l-55.214-266.75
			c-0.733-3.542,1.544-6.413,5.085-6.413h381.522c3.542,0,7.007,2.871,7.74,6.413L490.299,456.608z"/>
		<polygon style="fill:#FFFFFF;stroke:#263238;stroke-miterlimit:10;" points="477.603,446.501 104.463,446.501 52.105,193.552 
			425.245,193.552 		"/>
		<path style="fill:#92E3A9;stroke:#263238;stroke-linecap:round;stroke-linejoin:round;stroke-miterlimit:10;" d="M231.137,336.988
			l-2.553-12.937c-0.206-1.042-1.119-1.793-2.182-1.793h-69.629c-1.401,0-2.453,1.28-2.182,2.654l2.553,12.937
			c0.206,1.042,1.12,1.793,2.182,1.793h69.629C230.356,339.642,231.408,338.362,231.137,336.988z"/>
		<g>
			<path style="fill:#263238;" d="M173.32,240.858l-15.235,11.071l0.602,2.948h35.289l-0.564-2.762L173.32,240.858z
				 M175.673,251.742c-1.882,0-3.719-1.526-4.104-3.408c-0.385-1.882,0.829-3.408,2.711-3.408c1.882,0,3.719,1.526,4.104,3.408
				C178.769,250.216,177.555,251.742,175.673,251.742z"/>
			<polygon style="fill:#263238;" points="167.17,257.113 166.899,255.792 159.273,255.792 159.543,257.113 161.042,257.113 
				164.797,275.488 163.298,275.488 163.569,276.81 171.195,276.81 170.925,275.488 169.426,275.488 165.671,257.113 			"/>
			<polygon style="fill:#263238;" points="180.663,257.113 180.393,255.792 172.767,255.792 173.037,257.113 174.49,257.113 
				178.245,275.488 176.792,275.488 177.062,276.81 184.688,276.81 184.418,275.488 182.964,275.488 179.209,257.113 			"/>
			<polygon style="fill:#263238;" points="194.178,257.113 193.908,255.792 186.282,255.792 186.552,257.113 188.01,257.113 
				191.765,275.488 190.307,275.488 190.577,276.81 198.204,276.81 197.933,275.488 196.393,275.488 192.638,257.113 			"/>
			<polygon style="fill:#263238;" points="201.122,280.74 162.077,280.74 161.487,277.857 200.533,277.857 			"/>
			<polygon style="fill:#263238;" points="204.776,285.011 160.169,285.011 159.579,282.127 204.187,282.127 			"/>
		</g>
		<g>
			<path style="fill:#92E3A9;stroke:#263238;stroke-linecap:round;stroke-linejoin:round;stroke-miterlimit:10;" d="M375.69,250.805
				h-35.857c-2.045,0-4.03-1.658-4.433-3.703l-3.159-16.013c-0.403-2.045,0.927-3.703,2.972-3.703h35.857
				c2.045,0,4.03,1.658,4.433,3.703l3.159,16.013C379.066,249.148,377.735,250.805,375.69,250.805z"/>
		</g>
		<line style="fill:none;stroke:#263238;stroke-miterlimit:10;" x1="275.461" y1="225.247" x2="317.603" y2="426.682"/>
		<g>
			<path style="fill:#92E3A9;stroke:#263238;stroke-linecap:round;stroke-linejoin:round;stroke-miterlimit:10;" d="M102.349,229.91
				h36.19l-1.538-7.794c-0.337-1.711-1.998-3.098-3.709-3.098h-29.995c-1.711,0-2.824,1.387-2.486,3.098L102.349,229.91z"/>
			<path style="fill:#92E3A9;stroke:#263238;stroke-linecap:round;stroke-linejoin:round;stroke-miterlimit:10;" d="M141.43,229.91
				h36.19l-1.538-7.794c-0.338-1.711-1.998-3.098-3.709-3.098h-29.995c-1.711,0-2.824,1.387-2.486,3.098L141.43,229.91z"/>
			<path style="fill:#92E3A9;stroke:#263238;stroke-linecap:round;stroke-linejoin:round;stroke-miterlimit:10;" d="M180.511,229.91
				h36.19l-1.538-7.794c-0.337-1.711-1.998-3.098-3.709-3.098H181.46c-1.711,0-2.824,1.387-2.486,3.098L180.511,229.91z"/>
			<path style="fill:#92E3A9;stroke:#263238;stroke-linecap:round;stroke-linejoin:round;stroke-miterlimit:10;" d="M219.593,229.91
				h36.19l-1.538-7.794c-0.338-1.711-1.998-3.098-3.709-3.098h-29.995c-1.711,0-2.824,1.387-2.486,3.098L219.593,229.91z"/>
			<g>
				<line style="fill:none;stroke:#263238;stroke-miterlimit:10;" x1="66.373" y1="230.788" x2="83.059" y2="230.788"/>
				<line style="fill:none;stroke:#263238;stroke-miterlimit:10;" x1="65.494" y1="227.275" x2="82.181" y2="227.275"/>
				<line style="fill:none;stroke:#263238;stroke-miterlimit:10;" x1="64.616" y1="223.763" x2="81.303" y2="223.763"/>
			</g>
		</g>
		<polygon style="fill:#263238;stroke:#263238;stroke-miterlimit:10;" points="429.049,211.926 425.245,193.552 52.105,193.552 
			55.908,211.926 		"/>
		<polygon style="fill:#92E3A9;stroke:#263238;stroke-linecap:round;stroke-linejoin:round;stroke-miterlimit:10;" points="
			101.588,432.614 104.463,446.501 477.603,446.501 474.729,432.614 		"/>
		
			<rect x="91.843" y="445.472" style="fill:#263238;stroke:#263238;stroke-linecap:round;stroke-linejoin:round;stroke-miterlimit:10;" width="573.906" height="11.136"/>
		<rect x="359.253" y="445.472" style="fill:#8A8A8A;stroke:#263238;stroke-miterlimit:10;" width="306.497" height="11.136"/>
	</g>
</g>
<g id="Text">
	<g>
		<path style="fill:#263238;" d="M128.318,308.663c-1.13,0-2.073-0.21-2.829-0.631c-0.756-0.42-1.36-1.025-1.81-1.813
			c-0.45-0.788-0.786-1.721-1.006-2.798l-1.221-5.971c-0.22-1.077-0.265-2-0.133-2.769c0.132-0.768,0.491-1.356,1.078-1.764
			c0.587-0.407,1.445-0.611,2.575-0.611c1.156,0,2.107,0.204,2.854,0.611c0.746,0.407,1.346,0.995,1.799,1.764
			c0.453,0.768,0.789,1.692,1.01,2.769l1.225,5.99c0.218,1.064,0.259,1.987,0.123,2.769c-0.136,0.782-0.492,1.386-1.068,1.813
			C130.34,308.45,129.474,308.663,128.318,308.663z M127.879,306.515c0.486,0,0.822-0.105,1.009-0.315
			c0.187-0.21,0.282-0.499,0.286-0.867c0.004-0.367-0.039-0.768-0.128-1.202l-1.504-7.35c-0.091-0.447-0.213-0.848-0.364-1.202
			c-0.151-0.355-0.363-0.634-0.634-0.838c-0.271-0.203-0.65-0.305-1.136-0.305c-0.46,0-0.787,0.102-0.982,0.305
			c-0.195,0.204-0.295,0.483-0.301,0.838c-0.006,0.355,0.036,0.755,0.128,1.202l1.504,7.35c0.089,0.434,0.207,0.835,0.354,1.202
			c0.147,0.368,0.361,0.657,0.641,0.867C127.029,306.41,127.405,306.515,127.879,306.515z"/>
		<path style="fill:#263238;" d="M135.033,308.447l-3.265-15.962h2.03l5.745,9.105l-1.863-9.105h2.404l3.265,15.962h-1.931
			l-5.853-9.538l1.951,9.538H135.033z"/>
		<path style="fill:#263238;" d="M145.772,308.447l-3.265-15.962h2.916l2.854,13.952h3.863l0.411,2.01H145.772z"/>
		<path style="fill:#263238;" d="M154.068,308.447l-3.265-15.962h2.877l3.265,15.962H154.068z"/>
		<path style="fill:#263238;" d="M159.408,308.447l-3.265-15.962h2.03l5.745,9.105l-1.863-9.105h2.404l3.265,15.962h-1.932
			l-5.852-9.538l1.951,9.538H159.408z"/>
		<path style="fill:#263238;" d="M170.148,308.447l-3.265-15.962h6.7l0.419,2.05h-3.783l0.939,4.592h2.975l0.415,2.03h-2.975
			l1.08,5.281h3.823l0.411,2.01H170.148z"/>
		<path style="fill:#263238;" d="M183.37,308.447l-3.265-15.962h3.922c0.71,0,1.364,0.066,1.962,0.197
			c0.599,0.132,1.136,0.352,1.613,0.66c0.477,0.309,0.881,0.726,1.212,1.251c0.33,0.526,0.578,1.189,0.742,1.991
			c0.132,0.644,0.156,1.195,0.072,1.655c-0.083,0.46-0.268,0.824-0.555,1.094c-0.286,0.269-0.676,0.45-1.17,0.542
			c0.652,0.105,1.22,0.325,1.702,0.66c0.483,0.335,0.881,0.772,1.194,1.31c0.314,0.539,0.549,1.189,0.704,1.951
			c0.156,0.762,0.198,1.435,0.128,2.02c-0.071,0.585-0.254,1.071-0.55,1.458c-0.295,0.388-0.702,0.68-1.219,0.877
			c-0.519,0.197-1.152,0.296-1.9,0.296H183.37z M184.356,299.007h0.985c0.577,0,1.007-0.085,1.287-0.256
			c0.28-0.171,0.447-0.434,0.499-0.788c0.052-0.355,0.023-0.801-0.088-1.34c-0.115-0.564-0.3-1.001-0.553-1.31
			c-0.255-0.309-0.583-0.519-0.987-0.631c-0.404-0.111-0.902-0.167-1.493-0.167h-0.571L184.356,299.007z M185.868,306.397h1.103
			c0.88,0,1.434-0.213,1.663-0.64c0.228-0.427,0.25-1.087,0.067-1.98c-0.132-0.644-0.314-1.166-0.547-1.567
			c-0.233-0.401-0.545-0.7-0.933-0.897c-0.388-0.197-0.871-0.296-1.449-0.296h-1.005L185.868,306.397z"/>
		<path style="fill:#263238;" d="M193.519,308.447l-0.073-15.962h3.114l6.458,15.962h-2.7l-1.385-3.685h-2.779l0.104,3.685H193.519z
			 M196.071,302.909h2.168l-2.455-6.7L196.071,302.909z"/>
		<path style="fill:#263238;" d="M204.534,308.447l-3.265-15.962h2.03l5.744,9.105l-1.863-9.105h2.404l3.265,15.962h-1.932
			l-5.853-9.538l1.951,9.538H204.534z"/>
		<path style="fill:#263238;" d="M215.274,308.447l-3.265-15.962h2.917l1.435,7.015l1.718-7.015h2.779l-1.596,7.134l5.176,8.828
			h-2.897l-4.168-7.271l-0.42,1.221l1.238,6.05H215.274z"/>
		<path style="fill:#263238;" d="M225.659,308.447l-3.265-15.962h2.877l3.265,15.962H225.659z"/>
		<path style="fill:#263238;" d="M231,308.447l-3.265-15.962h2.029l5.745,9.105l-1.863-9.105h2.404l3.265,15.962h-1.931
			l-5.853-9.538l1.951,9.538H231z"/>
		<path style="fill:#263238;" d="M245.784,308.663c-1.051,0-1.931-0.223-2.64-0.67c-0.709-0.447-1.282-1.081-1.719-1.902
			c-0.438-0.821-0.771-1.79-0.999-2.906l-1.096-5.36c-0.234-1.143-0.304-2.128-0.21-2.956c0.094-0.828,0.427-1.461,1.001-1.902
			c0.573-0.44,1.445-0.66,2.614-0.66c1.09,0,1.995,0.184,2.714,0.552c0.719,0.368,1.29,0.896,1.714,1.586
			c0.424,0.69,0.737,1.527,0.938,2.513l0.169,0.828h-2.779l-0.185-0.906c-0.105-0.512-0.231-0.953-0.378-1.32
			c-0.148-0.368-0.35-0.647-0.605-0.837c-0.255-0.191-0.627-0.286-1.112-0.286c-0.513,0-0.859,0.125-1.037,0.374
			c-0.179,0.25-0.256,0.578-0.232,0.985c0.024,0.407,0.086,0.854,0.185,1.34l1.367,6.68c0.113,0.552,0.257,1.032,0.432,1.439
			c0.175,0.407,0.41,0.719,0.704,0.936c0.293,0.217,0.67,0.325,1.13,0.325c0.473,0,0.81-0.118,1.011-0.354
			c0.201-0.237,0.308-0.565,0.321-0.985c0.013-0.42-0.04-0.919-0.158-1.498l-0.306-1.498h-1.715l-0.375-1.833h4.335l1.657,8.099
			h-1.872l-0.539-1.576c-0.103,0.525-0.333,0.956-0.692,1.29C247.066,308.496,246.52,308.663,245.784,308.663z"/>
	</g>
	<g>
		<path style="fill:#263238;" d="M176.285,335.873l-2.239-9.72h2.148l2.239,9.72H176.285z"/>
		<path style="fill:#263238;" d="M179.885,335.873l-2.239-9.72h1.512l3.07,4.68l-1.078-4.68h1.776l2.239,9.72h-1.452l-3.153-5.04
			l1.161,5.04H179.885z"/>
		<path style="fill:#263238;" d="M187.913,335.873l-3.991-9.72h1.836l2.564,6.6l-0.548-6.6h1.944l0.463,9.72H187.913z"/>
		<path style="fill:#263238;" d="M195.626,336.016c-0.728,0-1.334-0.128-1.816-0.384c-0.483-0.256-0.872-0.624-1.166-1.104
			c-0.295-0.48-0.518-1.052-0.671-1.716l-0.832-3.612c-0.155-0.672-0.195-1.244-0.119-1.716c0.075-0.473,0.296-0.834,0.662-1.086
			c0.366-0.252,0.913-0.378,1.641-0.378c0.736,0,1.347,0.126,1.833,0.378c0.486,0.252,0.875,0.613,1.168,1.086
			c0.293,0.472,0.516,1.044,0.671,1.716l0.832,3.612c0.153,0.664,0.193,1.235,0.119,1.716c-0.074,0.48-0.295,0.848-0.664,1.104
			C196.915,335.888,196.362,336.016,195.626,336.016z M195.275,334.493c0.224,0,0.375-0.056,0.454-0.168
			c0.078-0.112,0.113-0.256,0.104-0.433c-0.009-0.176-0.034-0.355-0.076-0.539l-1.078-4.681c-0.044-0.191-0.102-0.374-0.174-0.546
			c-0.072-0.172-0.172-0.314-0.302-0.426c-0.13-0.112-0.307-0.168-0.531-0.168c-0.208,0-0.352,0.056-0.429,0.168
			c-0.078,0.112-0.114,0.254-0.106,0.426c0.007,0.172,0.034,0.354,0.078,0.546l1.078,4.681c0.042,0.184,0.097,0.363,0.166,0.539
			c0.069,0.177,0.166,0.32,0.292,0.433C194.877,334.437,195.051,334.493,195.275,334.493z"/>
		<path style="fill:#263238;" d="M199.853,335.873l-2.239-9.72h2.148l2.239,9.72H199.853z"/>
		<path style="fill:#263238;" d="M206.27,336.016c-0.736,0-1.349-0.134-1.839-0.401c-0.49-0.268-0.878-0.645-1.166-1.128
			c-0.288-0.484-0.507-1.054-0.658-1.71l-0.807-3.504c-0.155-0.673-0.2-1.25-0.135-1.734c0.064-0.484,0.28-0.858,0.647-1.122
			c0.367-0.264,0.919-0.395,1.655-0.395c0.72,0,1.309,0.118,1.767,0.353c0.458,0.236,0.82,0.566,1.086,0.99
			c0.266,0.424,0.462,0.912,0.589,1.464l0.193,0.84h-2.1l-0.224-0.972c-0.044-0.192-0.097-0.376-0.157-0.552
			c-0.061-0.177-0.152-0.322-0.275-0.439c-0.123-0.116-0.3-0.174-0.532-0.174c-0.224,0-0.376,0.06-0.457,0.18
			c-0.08,0.12-0.114,0.271-0.1,0.45c0.013,0.18,0.043,0.37,0.089,0.57l1.053,4.571c0.05,0.217,0.113,0.414,0.191,0.595
			c0.078,0.18,0.182,0.323,0.315,0.432c0.133,0.108,0.303,0.162,0.512,0.162c0.224,0,0.371-0.058,0.44-0.174
			c0.069-0.116,0.095-0.267,0.076-0.45c-0.018-0.184-0.05-0.372-0.094-0.564l-0.235-1.02h2.1l0.193,0.84
			c0.127,0.552,0.159,1.046,0.096,1.482c-0.064,0.436-0.269,0.779-0.615,1.031C207.535,335.89,206.998,336.016,206.27,336.016z"/>
		<path style="fill:#263238;" d="M210.209,335.873l-2.239-9.72h4.368l0.337,1.464h-2.22l0.556,2.412h1.692l0.343,1.487h-1.692
			l0.669,2.904h2.244l0.335,1.452H210.209z"/>
	</g>
	<g>
		<path style="fill:#263238;" d="M346.047,246.201l-2.804-14.21h4.772c0.853,0,1.587,0.161,2.2,0.482
			c0.613,0.322,1.115,0.789,1.505,1.404c0.39,0.614,0.672,1.359,0.845,2.237c0.217,1.099,0.201,1.938-0.047,2.517
			c-0.249,0.579-0.661,0.98-1.237,1.202c-0.576,0.222-1.25,0.333-2.022,0.333h-1.263l1.191,6.035H346.047z M347.564,237.973h1.052
			c0.386,0,0.664-0.07,0.836-0.21c0.171-0.14,0.261-0.351,0.27-0.632c0.009-0.281-0.029-0.637-0.115-1.07
			c-0.072-0.363-0.16-0.681-0.267-0.956c-0.107-0.275-0.276-0.494-0.507-0.658c-0.231-0.164-0.557-0.245-0.978-0.245h-1.035
			L347.564,237.973z"/>
		<path style="fill:#263238;" d="M354.555,246.201l-0.12-14.21h3.579l5.452,14.21h-2.895l-1.066-3h-2.087l0.101,3H354.555z
			 M357.33,241.324h1.509l-1.848-5.544L357.33,241.324z"/>
		<path style="fill:#263238;" d="M365.993,246.201l-1.146-5.807l-4.36-8.403h2.965l2.237,4.491l0.324-4.491h2.842l-0.991,8.403
			l1.146,5.807H365.993z"/>
	</g>
</g>
<g id="Credit_Card">
	<g>
		<polygon style="fill:#263238;stroke:#263238;stroke-linecap:round;stroke-linejoin:round;stroke-miterlimit:10;" points="
			367.177,268.256 353.943,268.256 383.167,408.412 396.401,408.412 		"/>
		<g>
			<path style="fill:#92E3A9;stroke:#263238;stroke-miterlimit:10;" d="M561.376,279.404c-0.001-3.499-2.838-6.335-6.337-6.334
				l-195.52,0.042l27.149,130.204l168.4-0.037c3.499-0.001,6.334-2.838,6.334-6.336L561.376,279.404z"/>
			<polygon style="fill:#FFFFFF;stroke:#263238;stroke-miterlimit:10;" points="382.835,384.934 389.828,384.933 389.826,375.742 
				380.919,375.743 			"/>
			<rect x="397.104" y="375.738" style="fill:#FFFFFF;stroke:#263238;stroke-miterlimit:10;" width="22.212" height="9.191"/>
			<rect x="426.592" y="375.731" style="fill:#FFFFFF;stroke:#263238;stroke-miterlimit:10;" width="22.212" height="9.191"/>
			<rect x="456.081" y="375.725" style="fill:#FFFFFF;stroke:#263238;stroke-miterlimit:10;" width="22.212" height="9.191"/>
			<rect x="485.57" y="375.718" style="fill:#FFFFFF;stroke:#263238;stroke-miterlimit:10;" width="22.212" height="9.191"/>
			<rect x="515.058" y="375.712" style="fill:#FFFFFF;stroke:#263238;stroke-miterlimit:10;" width="22.212" height="9.191"/>
			<path style="fill:#FFFFFF;stroke:#263238;stroke-miterlimit:10;" d="M545.392,299.497c0.001,6.98-5.656,12.639-12.635,12.641
				c-6.98,0.001-12.639-5.655-12.641-12.635c-0.002-6.98,5.656-12.639,12.635-12.641C539.731,286.86,545.39,292.517,545.392,299.497
				z"/>
			<path style="fill:#FFFFFF;stroke:#263238;stroke-miterlimit:10;" d="M415.857,321.601c0-1.828-1.483-3.31-3.311-3.309
				l-41.634,0.009c-0.686,0-1.324,0.209-1.852,0.567l7.388,35.431l36.106-0.008c1.828,0,3.31-1.483,3.309-3.311L415.857,321.601z"/>
			<rect x="367.596" y="288.418" style="fill:#FFFFFF;stroke:#263238;stroke-miterlimit:10;" width="105.7" height="5.362"/>
		</g>
	</g>
</g>
<g id="Invoice">
	<g>
		<polygon style="fill:#263238;stroke:#263238;stroke-miterlimit:10;" points="260.636,352.51 259.111,344.78 137.164,344.78 
			138.689,352.51 		"/>
		<g>
			<g>
				<path style="fill:#FFFFFF;stroke:#263238;stroke-miterlimit:10;" d="M281.709,408.494c-0.023,1.684,0.046,3.439,0.241,5.209
					c-27.623,12.515-55.212,29.625-66.379,30.595c-0.621,0.071-1.196,0.071-1.714,0.029c-27.025-2.554-32.971-24.545-31.648-39.271
					c0.38-4.167,0.541-9.176,0.575-14.242c0.126-15.269-7.429-29.011-18.964-34.348l-20.505-9.49h99.66l20.505,9.49
					c11.523,5.337,19.09,19.079,18.964,34.348c-0.046,5.066-0.207,10.075-0.575,14.242
					C281.767,406.168,281.709,407.309,281.709,408.494z"/>
				<path style="fill:none;stroke:#263238;stroke-miterlimit:10;" d="M224.956,443.378c-21.931-5.015-26.884-24.753-25.666-38.323
					c0.38-4.167,0.541-9.176,0.575-14.242c0.032-3.817-0.417-7.539-1.288-11.058"/>
				<path style="fill:none;stroke:#263238;stroke-miterlimit:10;" d="M239.38,443.378c-21.931-5.015-26.884-24.753-25.666-38.323
					c0.38-4.167,0.541-9.176,0.575-14.242c0.032-3.817-0.417-7.539-1.288-11.058"/>
				<path style="fill:none;stroke:#263238;stroke-miterlimit:10;" d="M253.803,443.378c-21.931-5.015-26.884-24.753-25.666-38.323
					c0.38-4.167,0.54-9.176,0.575-14.242c0.032-3.817-0.417-7.539-1.288-11.058"/>
				<path style="fill:none;stroke:#263238;stroke-miterlimit:10;" d="M268.227,443.378c-21.931-5.015-26.884-24.753-25.666-38.323
					c0.38-4.167,0.54-9.176,0.575-14.242c0.032-3.817-0.417-7.539-1.288-11.058"/>
				<path style="fill:none;stroke:#263238;stroke-miterlimit:10;" d="M282.65,443.378c-21.931-5.015-26.884-24.753-25.666-38.323
					c0.379-4.167,0.54-9.176,0.575-14.242c0.032-3.817-0.417-7.539-1.288-11.058"/>
				<path style="fill:none;stroke:#263238;stroke-miterlimit:10;" d="M297.074,443.378c-21.931-5.015-26.884-24.753-25.666-38.323
					c0.38-4.167,0.54-9.176,0.575-14.242c0.032-3.817-0.417-7.539-1.288-11.058"/>
				<path style="fill:#8A8A8A;stroke:#263238;stroke-miterlimit:10;" d="M368.305,420.038
					c-10.028,4.966-19.688,10.103-28.152,14.356c-10.672,5.366-19.47,9.361-24.737,9.889c-0.414,0.057-0.794,0.071-1.161,0.071
					h-98.717l0.035-0.057c11.167-0.97,38.756-18.08,66.379-30.595c1.656-0.756,3.312-1.484,4.957-2.198
					c15.79-6.807,31.269-11.702,43.344-10.803h0.023c2.185,0.157,4.267,0.514,6.199,1.085
					C349.054,405.468,359.795,412.575,368.305,420.038z"/>
				<path style="fill:#FFFFFF;stroke:#263238;stroke-miterlimit:10;" d="M390.87,445.052l2.284-3.909l2.284,3.909h0.471l2.284-3.909
					l2.284,3.909h0.471l2.284-3.909l2.284,3.909h0.471l2.284-3.909l2.284,3.909h0.471l2.284-3.909l2.284,3.909h0.471l2.284-3.909
					l2.284,3.909h0.471l2.284-3.909l2.284,3.909h0.471l2.284-3.909l2.284,3.909h0.471l2.284-3.909l2.284,3.909h0.471l2.284-3.909
					l2.284,3.909h0.471l2.284-3.909l2.284,3.909h0.471l2.284-3.909l2.284,3.909h0.471l2.284-3.909l2.284,3.909h0.471l2.284-3.909
					l2.284,3.909h0.471l2.284-3.909l2.284,3.909h0.471l2.284-3.909l2.284,3.909h0.471l2.284-3.909l2.284,3.909h0.471l2.284-3.909
					l2.284,3.909h0.471l2.284-3.909l2.284,3.909h0.471l1.402-2.399c-6.054-8.823-24.637-32.904-51.908-40.866
					c-4.853-1.413-10.511-1.513-16.687-0.628l-89.161-0.457c2.185,0.157,4.267,0.514,6.199,1.085
					c12.581,3.682,23.322,10.788,31.832,18.251c4.807,4.224,8.913,8.548,12.225,12.429c4.989,5.851,8.207,10.667,9.431,12.584
					H390.87z"/>
				<path style="fill:#FFFFFF;stroke:#263238;stroke-miterlimit:10;" d="M281.709,408.494c-0.023,1.684,0.046,3.439,0.242,5.209"/>
			</g>
			<line style="fill:none;stroke:#263238;stroke-miterlimit:10;" x1="184.728" y1="363.092" x2="260.967" y2="363.092"/>
			<line style="fill:none;stroke:#263238;stroke-miterlimit:10;" x1="188.849" y1="377.581" x2="269.896" y2="377.581"/>
			<line style="fill:none;stroke:#263238;stroke-miterlimit:10;" x1="189.88" y1="408.366" x2="276.122" y2="408.366"/>
			<line style="fill:none;stroke:#263238;stroke-miterlimit:10;" x1="190.648" y1="390.558" x2="276.89" y2="390.558"/>
			<line style="fill:none;stroke:#263238;stroke-miterlimit:10;" x1="192.97" y1="424.029" x2="259.936" y2="424.029"/>
			<line style="fill:none;stroke:#263238;stroke-miterlimit:10;" x1="367.426" y1="412.523" x2="446.755" y2="412.523"/>
			<polygon style="fill:none;stroke:#263238;stroke-miterlimit:10;" points="427.524,421.046 452.25,421.046 459.805,428.29 
				433.018,428.29 			"/>
			<line style="fill:none;stroke:#263238;stroke-miterlimit:10;" x1="186.58" y1="369.322" x2="262.819" y2="369.322"/>
			<line style="fill:none;stroke:#263238;stroke-miterlimit:10;" x1="198.213" y1="355.01" x2="239.295" y2="355.01"/>
		</g>
	</g>
</g>
<g id="Floor">
	
		<line style="fill:none;stroke:#263238;stroke-linecap:round;stroke-linejoin:round;stroke-miterlimit:10;" x1="21.718" y1="457.145" x2="742.44" y2="457.145"/>
</g>
<g id="Character">
	<g>
		<g>
			<path style="fill:#263238;stroke:#263238;stroke-linecap:round;stroke-linejoin:round;stroke-miterlimit:10;" d="
				M577.754,262.952c0,0-3.401-3.316-4.931-0.51c-1.53,2.806,1.701,4.846,1.445,5.441c-0.255,0.595-0.765,1.275,0,2.125
				c0.765,0.85,4.846-2.806,5.101-3.231C579.625,266.353,577.754,262.952,577.754,262.952z"/>
			<g>
				<path style="fill:#FFFFFF;stroke:#263238;stroke-linecap:round;stroke-linejoin:round;stroke-miterlimit:10;" d="
					M617.551,423.473c0,0,4.733,12.665,5.245,14.2c0.512,1.535,1.535,3.454-0.128,4.222c-1.663,0.768-3.838,0.256-4.733,0.256
					s-2.559,1.023-3.838,1.791c-1.279,0.768-5.629,0.896-6.141,0.896c-0.512,0-1.407-1.151-1.023-1.791
					c0.384-0.64,3.07-1.919,4.35-2.814s3.838-5.245,3.71-6.268c-0.128-1.023-3.582-8.06-3.582-8.06L617.551,423.473z"/>
				<path style="fill:#263238;stroke:#263238;stroke-linecap:round;stroke-linejoin:round;stroke-miterlimit:10;" d="
					M606.932,443.046c0.384-0.64,3.07-1.919,4.35-2.815c0.868-0.608,2.323-2.804,3.13-4.474c0.203,0.014,0.912,0.111,1.347,0.764
					c0.512,0.767,0.768,1.407,0.768,1.407s3.251-0.897,5.66-1.956c0.299,0.82,0.519,1.432,0.608,1.7
					c0.512,1.535,1.535,3.454-0.128,4.222c-1.663,0.768-3.838,0.256-4.733,0.256s-2.559,1.023-3.838,1.791
					c-1.279,0.768-5.629,0.896-6.141,0.896S606.549,443.685,606.932,443.046z"/>
			</g>
			<path style="fill:#263238;stroke:#263238;stroke-linecap:round;stroke-linejoin:round;stroke-miterlimit:10;" d="M598.92,369.119
				c0,0-0.768,16.887-0.256,18.678c0.512,1.791,5.501,6.269,6.652,9.978c1.151,3.71,13.513,27.872,13.513,27.872l-9.851,4.605
				c0,0-16.712-25.057-18.886-31.454c-2.175-6.397-8.06-20.085-8.06-20.085L598.92,369.119z"/>
			<g>
				<path style="fill:#FFFFFF;stroke:#263238;stroke-linecap:round;stroke-linejoin:round;stroke-miterlimit:10;" d="
					M552.061,426.449l-7.036,8.571c0,0-5.629,0.256-7.804-0.384c-2.175-0.64-4.605-3.198-4.861-1.919
					c-0.256,1.279,0.768,4.477,2.431,6.268c1.663,1.791,8.699,5.117,10.49,5.757c1.791,0.64,2.814-1.279,3.198-2.175
					s0.768-2.942,1.151-3.71s9.339-9.467,9.339-9.467L552.061,426.449z"/>
				<path style="fill:#263238;stroke:#263238;stroke-linecap:round;stroke-linejoin:round;stroke-miterlimit:10;" d="
					M537.221,434.636c0.884,0.26,2.34,0.372,3.755,0.414l-0.301,2.913c0,0,5.173,2.129,8.384,2.686
					c-0.193,0.725-0.387,1.468-0.58,1.919c-0.384,0.896-1.407,2.814-3.198,2.175c-1.791-0.64-8.827-3.966-10.49-5.757
					c-1.663-1.791-2.687-4.989-2.431-6.268C532.616,431.438,535.047,433.997,537.221,434.636z"/>
			</g>
			<g>
				<path style="fill:#263238;stroke:#263238;stroke-linecap:round;stroke-linejoin:round;stroke-miterlimit:10;" d="
					M594.173,336.965l1.025,3.303c0,0,5.481,7.666,7.309,15.384c1.578,6.664-0.812,10.358-2.64,14.014
					c-1.54,3.08-20.728,24.13-21.753,25.839c-1.025,1.708-5.592,17.396-8.553,22.293c-2.961,4.897-10.25,16.901-10.25,16.901
					l-9.936-6.842c0,0,13.82-26.316,16.212-33.377c2.392-7.061,3.758-12.3,5.125-15.034s4.669-13.097,4.669-13.097
					s-2.506-8.542-2.847-15.261c-0.342-6.72,0.114-15.261,0.114-15.261L594.173,336.965z"/>
				
					<line style="fill:none;stroke:#FFFFFF;stroke-linecap:round;stroke-linejoin:round;stroke-miterlimit:10;" x1="586.61" y1="385.807" x2="596.003" y2="373.395"/>
				<path style="fill:none;stroke:#FFFFFF;stroke-linecap:round;stroke-linejoin:round;stroke-miterlimit:10;" d="M575.381,366.348
					c0,0,2.392-5.922,5.125-8.997"/>
			</g>
			<path style="fill:#FFFFFF;stroke:#263238;stroke-linecap:round;stroke-linejoin:round;stroke-miterlimit:10;" d="M595.01,339.659
				l-22.498-0.459c0.065-2.034,0.136-3.374,0.136-3.374l21.525,1.139L595.01,339.659z"/>
			<path style="fill:#FFFFFF;stroke:#263238;stroke-linecap:round;stroke-linejoin:round;stroke-miterlimit:10;" d="
				M570.308,323.419l-2.444,7.603l-13.398,5l4.201,2l19.203,0.8l-2.945-14.861C574.924,323.962,571.937,320.16,570.308,323.419z"/>
			<g>
				<g>
					<path style="fill:#92E3A9;stroke:#263238;stroke-linecap:round;stroke-linejoin:round;stroke-miterlimit:10;" d="
						M600.925,311.628c-0.133-4.803-1.428-8.643-1.959-10.029c-2.567-3.562-6.033-7.896-7.669-7.303
						c-8.208,2.974-10.583,4.103-12.164,5.368s-6.759,5.903-7.897,10.458c-1.139,4.556-0.866,26.501-0.866,26.501
						c7.517,2.392,27.947,2.044,27.947,2.044l1.175-11.349C600.005,323.884,601.024,315.216,600.925,311.628z"/>
				</g>
			</g>
			<g>
				<path style="fill:#FFFFFF;stroke:#263238;stroke-linecap:round;stroke-linejoin:round;stroke-miterlimit:10;" d="
					M577.257,267.884c0,0-2.952,3.15-3.39,4.495c-0.438,1.346-1.416,3.977-2.702,5.106c-1.286,1.129-3.285,1.215-3.086,2.306
					c0.199,1.091,1.371,2.541,1.371,2.541s-0.131,2.848,0.159,4.618c0.289,1.77,0.501,3.912,1.184,4.172
					c0.684,0.26,6.842-0.392,6.842-0.392s3.688,3.368,3.688,5.154c0,1.785-4.166,5.526-4.166,5.526s-2.142,2.521,0.239,3.966
					s18.34-8.559,17.189-9.327c-0.986-0.657-3.47-4.822-3.615-7.12c-0.22-3.5-2.211-8.767-4.382-14.35
					C584.416,268.995,577.257,267.884,577.257,267.884z"/>
				<polygon style="fill:#263238;stroke:#263238;stroke-linecap:round;stroke-linejoin:round;stroke-miterlimit:10;" points="
					577.635,290.729 580.116,289.615 579.716,293.113 				"/>
				<path style="fill:none;stroke:#263238;stroke-linecap:round;stroke-linejoin:round;stroke-miterlimit:10;" d="M576.999,275.6
					c0,0-0.32-2.553-2.462-2.342"/>
				<path style="fill:none;stroke:#263238;stroke-linecap:round;stroke-linejoin:round;stroke-miterlimit:10;" d="M575.452,282.424
					c0,0-1.442,1.873-4.254,1.206"/>
				<path style="fill:#263238;" d="M574.417,277.351c-0.332,0.662-0.85,1.074-1.158,0.92c-0.308-0.154-0.288-0.816,0.044-1.478
					c0.332-0.662,0.85-1.074,1.158-0.92C574.768,276.027,574.749,276.689,574.417,277.351z"/>
			</g>
			<path style="fill:#263238;stroke:#263238;stroke-linecap:round;stroke-linejoin:round;stroke-miterlimit:10;" d="
				M583.259,275.099c-0.058,0.782-1.073,3.85-0.614,4.643c0,0,2.218-2.47,4.002-0.84c1.784,1.631,1.083,5.084-0.371,5.724
				c-1.453,0.641-2.957,0.344-2.957,0.344s1.952,1.606,2.209,3.373c0.062,0.425,0.698,0.758,1.228,1.165
				c0.924,0.709,2.081,1.036,3.228,0.833c0.122-0.022,0.258-0.046,0.412-0.074c2.399-0.436,6.761-3.926,8.07-6.979
				c1.309-3.053,0.654-6.979,0.436-10.469c-0.218-3.49-5.723-7.497-5.723-7.497s-3.148-3.924-7.599-4.995
				c-4.451-1.071-7.334,0.379-8.616,2.198c-1.282,1.819-0.832,3.729,1.869,6.945C581.534,272.687,583.318,274.318,583.259,275.099z"
				/>
		</g>
		<path style="fill:#FFFFFF;stroke:#263238;stroke-linecap:round;stroke-linejoin:round;stroke-miterlimit:10;" d="M596.105,305.621
			c0,0-6.239-1.277-7.713,2.466c-1.474,3.742-9.172,23.608-9.172,23.608l-31.178,2.333l-3.401-3.669c0,0-4.563-2.106-5.089-2.281
			c-0.527-0.176-1.096-0.318-1.096,0.583c0,0.901,1.533,2.163,1.803,2.254c0.27,0.09,0.541,1.172,0.541,1.172l-7.122-0.631
			c0,0-0.631,0.631-0.27,1.172c0.36,0.541,3.606,1.352,3.606,1.352s-4.868,0.271-4.958,0.631s-0.27,0.901,0.09,1.082
			s5.048,1.262,5.048,1.262l-4.868,0.992c0,0-0.361,0.631,0.09,1.172s5.319,0.631,5.319,0.631s-2.614,0.631-2.524,0.992
			c0.09,0.361,0.09,0.811,0.451,0.811s8.474-1.623,8.474-1.623l5.641-1.562c9.895,1.198,33.186,4.005,34.163,4.005
			c1.242,0,14.402-24.583,14.402-24.583C601.195,308.731,596.105,305.621,596.105,305.621z"/>
		<path style="fill:#263238;stroke:#263238;stroke-linecap:round;stroke-linejoin:round;stroke-miterlimit:10;" d="M593.179,265.323
			c0,0,7.686-2.317,10.957-1.444c3.271,0.872,7.633,6.979,7.852,11.341c0.218,4.362-2.835,12.431-2.835,12.431
			s2.835,3.926,2.617,7.415c-0.218,3.49-4.362,7.851-5.671,8.288c-1.309,0.436,0,2.399,0.872,2.399c0.872,0,0.872,0,0.872,0
			s-0.218,2.835-2.835,3.271c-2.617,0.436-7.633-2.835-8.288-8.724c-0.654-5.889,4.58-10.25,4.58-10.25s-5.234-2.617-6.543-8.288
			C593.45,276.092,593.179,265.323,593.179,265.323z"/>
	</g>
</g>
</svg>
